<svg id="Logo" xmlns="http://www.w3.org/2000/svg" width="173.061" height="110" viewBox="0 0 173.061 110">
  <g id="Groupe_1" data-name="Groupe 1">
    <path id="Tracé_1" data-name="Tracé 1" d="M247.1.489a54.027,54.027,0,0,0-12.281,3.461c-1.6.632-3.162,1.331-4.693,2.03-.2.133-.433.233-.632.366-1.1.632-2.163,1.265-3.228,1.93-.566.433-1.132.832-1.664,1.265.7-.2,1.4-.366,2.1-.533a56.029,56.029,0,0,1,6.756-1.065c1.83-.2,3.694-.3,5.558-.366.532-.033,1.1-.067,1.664-.1h.3c.965-.033,1.964-.1,2.962-.1h.965c.865,0,1.731,0,2.629.033h3.128c1.531,0,2.862-.033,4.094-.1a32.919,32.919,0,0,0,5.392-.632,11.3,11.3,0,0,0,2.2-.7,6.9,6.9,0,0,0,1.8-1.132,3.479,3.479,0,0,0,.566-.7,1.62,1.62,0,0,0,.133-.366.811.811,0,0,0,0-.4,1.2,1.2,0,0,0-.266-.6,2.209,2.209,0,0,0-.632-.6,6.988,6.988,0,0,0-1.864-.865c-.732-.233-1.5-.433-2.43-.632a37.334,37.334,0,0,0-5.791-.6h-.8a35.848,35.848,0,0,0-5.957.4" transform="translate(-161.83 -0.085)" fill="#d61c4e"/>
    <path id="Tracé_2" data-name="Tracé 2" d="M362.525,4.55c-.166,0-.366.033-.532.033a9.231,9.231,0,0,0-3.062.5,3.092,3.092,0,0,0-1.231.832,1.688,1.688,0,0,0-.4,1.2,1.731,1.731,0,0,0,.632,1.032,5.128,5.128,0,0,0,1.4.8,17.251,17.251,0,0,0,4.293,1.032,23.825,23.825,0,0,0,4.626.133,6.753,6.753,0,0,0,3.461-1.032,2.01,2.01,0,0,0,.8-1.165,1.347,1.347,0,0,0-.366-1.132,6.438,6.438,0,0,0-3.162-1.564,18.637,18.637,0,0,0-1.964-.4c-.765-.1-1.5-.2-2.3-.233-.3,0-.632-.033-.932-.033a8.02,8.02,0,0,0-1.265,0" transform="translate(-250.366 -3.047)" fill="#d61c4e"/>
    <path id="Tracé_3" data-name="Tracé 3" d="M443.4,291.564c-.333.1-.666.2-1.032.3-.932.266-1.93.466-2.862.7l-.6.133c-3.1.732-6.157,1.464-9.086,2.4a36.589,36.589,0,0,0-3.96,1.464,13.207,13.207,0,0,0-1.4.765,3.609,3.609,0,0,0-.965.832,1.508,1.508,0,0,0-.4.9,1.64,1.64,0,0,0,.533,1.132,3.188,3.188,0,0,0,1.464.732,7.787,7.787,0,0,0,1.664.166h.233a22.141,22.141,0,0,0,4.46-.632c1.165-.266,2.363-.6,3.594-.965a35.493,35.493,0,0,0,5.159-2.163,39.268,39.268,0,0,0,5.092-3.1,45.542,45.542,0,0,0,5.425-4.626c-2.33.732-4.793,1.365-7.322,1.964" transform="translate(-294.266 -193.245)" fill="#d61c4e"/>
    <path id="Tracé_4" data-name="Tracé 4" d="M208.795,83.911a15.459,15.459,0,0,0-1.7-4.393,23.025,23.025,0,0,0-3.1-4.16,33.056,33.056,0,0,0-4.693-4.193c-1.265-.932-2.7-1.83-4.06-2.7-.566-.366-1.132-.7-1.664-1.065a26.75,26.75,0,0,1-5.425-4.26,5.827,5.827,0,0,1-1-1.631,3.716,3.716,0,0,1-.2-1.464,5.49,5.49,0,0,1,.532-1.631,13.179,13.179,0,0,1,2.4-2.9c.366-.333.765-.666,1.165-1.032.2-.2.433-.366.632-.566q.7-.6,1.4-1.3a15.093,15.093,0,0,0,1.9-2.3,9.747,9.747,0,0,0,1.165-2.263,7.557,7.557,0,0,0,.4-2.163,6.61,6.61,0,0,0-1.265-3.894,13.392,13.392,0,0,0-3.628-3.428A33.092,33.092,0,0,0,186.1,35.62a61.755,61.755,0,0,0-7.089-2.5A132.215,132.215,0,0,0,162.2,29.429c-5.525-.9-11.415-1.6-17.506-2.063-2.7-.2-5.358-.366-7.988-.466-2.063-.067-3.927-.1-5.658-.1h-1.464c-2.663.033-5.558.2-9.086.566-4.992.5-10.184,1.3-15.376,2.33-3.461.7-6.989,1.531-10.45,2.463-3.661.765-7.422,1.731-11.183,2.9-3.994,1.231-7.954,2.663-11.782,4.26a105.954,105.954,0,0,0-10.883,5.258,85.673,85.673,0,0,0-9.618,6.09,52.619,52.619,0,0,0-7.621,6.789,30.264,30.264,0,0,0-5.059,7.289,24.49,24.49,0,0,0-2.163,7.388,33,33,0,0,0-.266,7.488,36.99,36.99,0,0,0,4.56,14.71,42.03,42.03,0,0,0,3.228,5.092.422.422,0,0,1,.2.033h.133a.276.276,0,0,0,.067.266h0a.422.422,0,0,1-.2-.033,57.228,57.228,0,0,0,7.388,8.054,70.46,70.46,0,0,0,16.541,10.85A88.252,88.252,0,0,0,78.3,122.684c1.731.566,3.594,1.132,5.558,1.631,1.93.5,4.027.965,6.39,1.431a118.435,118.435,0,0,0,12.58,1.7c0-.033,0-.033-.033-.067h.466a.122.122,0,0,1,.033.1c3.728.3,7.588.433,11.582.433,1.6,0,3.262-.033,4.892-.067,4.826-.133,9.918-.533,15.076-1.132,4.926-.6,9.851-1.365,14.71-2.363a164.279,164.279,0,0,0,25.527-7.422,92.588,92.588,0,0,0,20.268-10.45,43.5,43.5,0,0,0,7.422-6.556,27.054,27.054,0,0,0,4.792-7.455,21.2,21.2,0,0,0,1.231-4.06A9.755,9.755,0,0,0,208.795,83.911ZM49.21,100.052h0a.2.2,0,0,1-.133-.033A.252.252,0,0,0,49.21,100.052Zm-.333,1.9h0l-.033-.033h-.033v-.033c.1.133.2.233.3.366A1.036,1.036,0,0,0,48.877,101.949ZM61.391,112.7l-.133-.1c.166.1.3.2.466.3Z" transform="translate(-35.996 -17.909)" fill="#d61c4e"/>
  </g>
  <path id="Tracé_5" data-name="Tracé 5" d="M419.233,53.39c-.166-1.564-2.4-2.762-4.992-2.7-2.629.1-4.626,1.431-4.46,3s2.4,2.762,4.992,2.7c2.6-.1,4.593-1.431,4.46-3" transform="translate(-285.374 -33.849)" fill="#9a2532"/>
  <path id="Tracé_6" data-name="Tracé 6" d="M460.453,61.629c-.067-.832-1.265-1.464-2.662-1.431s-2.463.765-2.4,1.6,1.265,1.464,2.663,1.431,2.463-.765,2.4-1.6" transform="translate(-315.811 -40.19)" fill="#9a2532"/>
  <path id="Tracé_7" data-name="Tracé 7" d="M469.193,80.194c-.033-.4-.632-.732-1.331-.7s-1.2.366-1.165.8c.033.4.632.732,1.331.7.666-.033,1.2-.4,1.165-.8" transform="translate(-323.353 -53.065)" fill="#9a2532"/>
  <rect id="Rectangle_2" data-name="Rectangle 2" width="119.58" height="42.933" transform="translate(32.451 46.865)" fill="none"/>
  <text id="Foody_" data-name="Foody!" transform="translate(32.442 68.692)" fill="#f2f2f2" font-size="32" font-family="Coiny-Regular, Coiny"><tspan x="0" y="0">Foody!</tspan></text>
</svg>
