<svg id="Image" xmlns="http://www.w3.org/2000/svg" width="439.272" height="539.326" viewBox="0 0 439.272 539.326">
  <g id="Groupe_2" data-name="Groupe 2" transform="translate(0 0)">
    <path id="Tracé_8" data-name="Tracé 8" d="M125.667,164.3a1.676,1.676,0,0,0-.882.439l-.662.658H123.9a139.55,139.55,0,0,0-27.573,16.669c-3.97,3.071-8.162,6.58-12.353,10.528-3.97,3.728-7.941,7.676-11.47,11.624a197.542,197.542,0,0,0-20.073,26.758,229.155,229.155,0,0,0-15.882,30.048,288.725,288.725,0,0,0-11.47,32.9A217.778,217.778,0,0,0,18.463,327.7a220.575,220.575,0,0,0,1.765,67.334c1.544,7.457,3.309,14.7,5.294,21.275,1.1,3.29,2.206,6.58,3.529,9.87.662,1.535,1.324,3.29,1.985,4.825a36.446,36.446,0,0,0,2.647,5.044,56.682,56.682,0,0,0,3.088,6.361,17.182,17.182,0,0,0,2.206,3.29,14.934,14.934,0,0,0,2.647,2.632,34.5,34.5,0,0,0,5.515,3.729,25.406,25.406,0,0,0,6.4,2.413,22.14,22.14,0,0,0,3.529.439h0a15.444,15.444,0,0,0,3.529-.439,8.124,8.124,0,0,0,3.088-1.316,4.808,4.808,0,0,0,1.1-.877c.441-.439,1.1-.877,1.323-1.316.221-.219.662-.439.882-.658a11.521,11.521,0,0,0,2.206-2.412c.662-1.1,1.324-2.193,1.765-3.071a13.886,13.886,0,0,0,1.323-3.948,23.18,23.18,0,0,0,.882-4.167,39.8,39.8,0,0,0,1.985-8.115A124.39,124.39,0,0,0,76.918,407.1c.221-12.5.221-25,0-37.286V356.65c0-10.966,0-24.126.441-37.285.221-6.8.441-12.94.882-18.643.441-5.922,1.1-11.844,1.985-18.423.882-7.018,2.206-14.256,3.529-21.933,1.544-7.676,3.088-15.572,4.632-22.152l1.1-5.264c1.323-5.483,2.426-11.186,3.529-16.669a171.319,171.319,0,0,1,14.338-27.635,112.005,112.005,0,0,1,18.308-21.494.8.8,0,0,0,.221-.658,1.138,1.138,0,0,0-.441-.877c.882-1.316.441-1.316.221-1.316" transform="translate(19.348 -69.331)" fill="#ab7e57"/>
    <path id="Tracé_9" data-name="Tracé 9" d="M14.59,255.59a.664.664,0,0,0,0,.877,151.674,151.674,0,0,0,12.353,11.406c2.206,1.754,4.412,3.509,6.617,5.044s4.632,3.071,6.838,4.606l3.309,1.974,3.97,1.974c2.426,1.1,5.073,2.193,7.5,3.071,2.647.877,5.515,1.535,8.162,2.193,2.647.439,5.515.877,8.382,1.1h3.75a29.73,29.73,0,0,0,4.412-.219,3.154,3.154,0,0,0,2.647-3.51,4.546,4.546,0,0,0-1.324-2.193A4.272,4.272,0,0,0,79,281.251c-1.544.219-3.088.219-4.632.439a24.133,24.133,0,0,0-3.97.219,62.568,62.568,0,0,1-14.338-1.755.813.813,0,0,1,.662.219c-1.544-.439-2.868-.877-4.412-1.316s-3.088-1.1-4.632-1.535c-2.868-1.1-5.735-2.413-8.6-3.729H39.3A98.429,98.429,0,0,1,18.12,258l.221.219-2.426-2.413c-.221-.219-.221-.219-.441-.219-.662-.219-.882-.219-.882,0" transform="translate(16.603 39.406)" fill="#cda170"/>
    <path id="Tracé_10" data-name="Tracé 10" d="M16.936,244.077a3.035,3.035,0,0,0-1.544,4.167,42.48,42.48,0,0,0,4.632,7.457,57.268,57.268,0,0,0,5.956,6.8,117.7,117.7,0,0,0,15,12.721,88.217,88.217,0,0,0,17.426,9.212,53.988,53.988,0,0,0,17.647,3.729h4.191c1.1,0,1.765-1.316,1.765-2.193a2.145,2.145,0,0,0-2.206-1.755H78.92a35.732,35.732,0,0,1-9.706-1.316,68.958,68.958,0,0,1-16.1-6.58.772.772,0,0,1,.441.219,100.364,100.364,0,0,1-18.308-13.379,67.915,67.915,0,0,1-12.132-15.134,18.085,18.085,0,0,1-1.544-2.851A3.435,3.435,0,0,0,19.8,243.42a2,2,0,0,0-1.1-.219,6.314,6.314,0,0,1-1.765.877M78.92,284.434Zm-.221,0h0" transform="translate(17.346 24.818)" fill="#cda170"/>
    <path id="Tracé_11" data-name="Tracé 11" d="M17.352,236.458a1.353,1.353,0,0,0-.221,1.755,40.552,40.552,0,0,0,12.353,8.554,50.511,50.511,0,0,0,15,3.948,96.1,96.1,0,0,0,15.882.439,68.8,68.8,0,0,0,15-2.193c.882-.219,1.765-.439,2.426-.658a3.191,3.191,0,0,0,0-5.922,4.552,4.552,0,0,0-2.426,0c-1.985.658-3.97,1.316-6.176,1.974a60.136,60.136,0,0,1-9.044,1.974,46.282,46.282,0,0,1-9.485.877H50.44a65.7,65.7,0,0,1-14.558-1.535,38.763,38.763,0,0,1-9.485-3.728h.221a.216.216,0,0,1-.221-.219h0a33.949,33.949,0,0,1-7.059-5.044l-.441-.439a1.678,1.678,0,0,0-.882-.439q-.331.658-.662.658m52.719,7.9h0m-19.411,3.29ZM26.617,242.38h0" transform="translate(19.577 15.988)" fill="#cda170"/>
    <path id="Tracé_12" data-name="Tracé 12" d="M23.684,214.539a3.218,3.218,0,0,0-1.544,4.167,49.737,49.737,0,0,0,8.6,13.379,75.607,75.607,0,0,0,5.956,5.922,71.7,71.7,0,0,0,6.4,5.045,117.456,117.456,0,0,0,14.558,8.115,90.782,90.782,0,0,0,15.441,5.045,2.222,2.222,0,0,0,2.426-1.974,2.625,2.625,0,0,0-.441-1.755,3.561,3.561,0,0,0-1.544-.877c-.221,0-.441-.219-.882-.219a65.819,65.819,0,0,1-8.6-2.851,55.925,55.925,0,0,1-8.162-3.948A78.258,78.258,0,0,1,40.227,233.4a56.973,56.973,0,0,1-9.706-12.063c-1.1-1.755-1.985-3.509-2.868-5.264a3.4,3.4,0,0,0-2.868-1.974c-.221.219-.662.219-1.1.439m7.059,6.8c.221.219.221.439.441.658-.221-.219-.441-.439-.441-.658m9.706,12.282.221.219c0-.219,0-.219-.221-.219" transform="translate(25.598 -9.906)" fill="#cda170"/>
    <path id="Tracé_13" data-name="Tracé 13" d="M24.189,209.769a1.383,1.383,0,0,0-.221,1.974,65.6,65.6,0,0,0,9.706,9.431,52.784,52.784,0,0,0,12.353,7.018,74.136,74.136,0,0,0,13.456,4.387c2.206.658,4.632.877,6.838,1.316a34.462,34.462,0,0,0,6.838.658,2.677,2.677,0,0,0,2.206-.658,2.614,2.614,0,0,0,1.1-1.974,3.262,3.262,0,0,0-.662-2.193,2.636,2.636,0,0,0-1.985-1.1H67.864a33.092,33.092,0,0,1-4.632-.439c-2.868-.439-5.735-.877-8.6-1.535a57.857,57.857,0,0,1-14.779-5.922c.221,0,.221.219.441.219A49.7,49.7,0,0,1,29.924,213.5c-1.1-1.1-2.206-2.413-3.309-3.509-.221-.439-.662-.439-1.1-.439a1.241,1.241,0,0,0-1.323.219m5.515,3.948h0m24.485,12.94h0" transform="translate(27.74 -15.445)" fill="#cda170"/>
    <path id="Tracé_14" data-name="Tracé 14" d="M32.474,195.7a2.973,2.973,0,0,0-1.985,1.1,2.689,2.689,0,0,0-.441,2.193,29.058,29.058,0,0,0,2.426,6.58A55.7,55.7,0,0,0,36,211.711a66.111,66.111,0,0,0,8.823,10.308,75.166,75.166,0,0,0,10.588,8.115c1.985,1.316,3.971,2.413,5.956,3.509s4.191,1.974,6.176,3.07a1.529,1.529,0,1,0,1.1-2.851c-.662-.219-1.323-.658-1.985-.877a90.655,90.655,0,0,1-8.6-5.264,57.375,57.375,0,0,1-7.941-6.58l.441.439a59.41,59.41,0,0,1-9.485-11.405,47.051,47.051,0,0,1-3.088-5.7c-1.1-2.193-1.765-4.606-2.647-6.8a2.192,2.192,0,0,0-.882-1.1,2.513,2.513,0,0,0-1.765-.658.216.216,0,0,0-.221-.219" transform="translate(35.337 -31.862)" fill="#cda170"/>
    <path id="Tracé_15" data-name="Tracé 15" d="M37.494,187.489a1.335,1.335,0,0,0-.662,1.535c.441.658.882,1.535,1.323,2.193h0a35.721,35.721,0,0,0,2.426,3.729,23.519,23.519,0,0,0,3.088,3.509,50.308,50.308,0,0,0,7.279,6.361,39.6,39.6,0,0,0,8.382,4.825c1.324.658,2.868,1.316,4.191,1.974a32.277,32.277,0,0,0,4.191,1.535c.221,0,.441.219.662.219a2.813,2.813,0,0,0,1.323-.219,2.323,2.323,0,0,0,1.324-1.535,3.027,3.027,0,0,0,0-1.974,2.79,2.79,0,0,0-2.206-1.535c-1.1-.219-2.206-.439-3.529-.658a46.6,46.6,0,0,1-10.367-4.167c.221,0,.221.219.441.219a47.343,47.343,0,0,1-10.147-7.238h0l-.221-.219.221.219a45.657,45.657,0,0,1-5.956-7.019h0v-.439h0c-.221-.219-.221-.439-.441-.658a1.214,1.214,0,0,0-1.1-.658c0-.219,0-.219-.221,0m7.941,8.334h0m-5.956-7.018h0" transform="translate(43.551 -41.856)" fill="#cda170"/>
    <path id="Tracé_16" data-name="Tracé 16" d="M41.888,181.458a2.4,2.4,0,0,0-.441,3.29,44.155,44.155,0,0,0,14.559,12.5,48.031,48.031,0,0,0,9.044,4.167,45.867,45.867,0,0,0,9.485,2.193,3.208,3.208,0,0,0,3.529-2.632,3.338,3.338,0,0,0-2.647-3.509,41.728,41.728,0,0,1-7.279-1.1,50.8,50.8,0,0,1-10.809-4.387,47.175,47.175,0,0,1-8.6-6.141,33.771,33.771,0,0,1-3.75-4.167,2.01,2.01,0,0,0-1.765-.877,2.434,2.434,0,0,0-1.323.658" transform="translate(48.642 -49.642)" fill="#cda170"/>
    <path id="Tracé_17" data-name="Tracé 17" d="M25.414,127.5a1.489,1.489,0,0,0-1.323.877,1.864,1.864,0,0,0,0,1.535c4.191,4.825,7.5,10.528,10.147,15.133,1.985,3.509,3.75,7.019,5.515,10.308a2.812,2.812,0,0,0,1.324-.219c.662,0,1.544-.219,2.206-.219.662-.219,1.1-.219,1.765-.439h.221c.221,0,.221,0,.441.219a.678.678,0,0,1,.221.439,14.127,14.127,0,0,1-.882,2.851c-.441.877-.662,1.755-1.1,2.632l-.662,1.316c2.426,4.606,5.294,9.87,8.6,15.133a82.114,82.114,0,0,0,10.809,13.379,87.823,87.823,0,0,0,47.2,23.468,6.748,6.748,0,0,0-.441,1.755h-.882v-.439c0-.658-.221-1.1-.662-1.1h0c-.662,0-1.1.219-1.1.877v.877h0a14.652,14.652,0,0,0-3.088.219,2.905,2.905,0,0,0-2.647,3.071,2.3,2.3,0,0,0,1.1,1.974l.662.439a2.812,2.812,0,0,0,1.324.219h2.647c-.221,2.632,0,5.264,0,8.115a70.029,70.029,0,0,0,1.985,13.379,75.356,75.356,0,0,0,10.588,23.687,114.606,114.606,0,0,0,16.985,20.178c1.323,1.316,2.868,2.632,4.412,4.167a44.457,44.457,0,0,1,2.868-3.948,71.11,71.11,0,0,1,6.4-7.457.772.772,0,0,1,.441-.219h.221l.221.219v.219a49.2,49.2,0,0,1-.441,12.721,54.812,54.812,0,0,1-.882,5.922c2.426,1.974,5.073,3.729,7.72,5.7.441.219.662.658,1.1.877a8.873,8.873,0,0,0,1.1-1.974c.882-1.755,1.765-3.29,2.647-5.044h0c.441-1.1.882-1.974,1.323-3.071a.216.216,0,0,1,.221-.219h.221a.473.473,0,0,1,.441.439,44.61,44.61,0,0,1,.221,9.431,35.8,35.8,0,0,1-.441,5.044c4.853,3.29,9.485,6.36,13.676,9.212,3.529,2.193,6.838,4.606,10.367,6.8,1.765,1.1,3.309,2.193,5.073,3.29l.882.658a44.742,44.742,0,0,1,3.971,2.851c.441.219.662.439,1.1.439h.441a1.392,1.392,0,0,0,1.1-1.316c.221-2.413.441-4.825.441-6.8,0-2.193,0-4.387-.221-6.8a85.725,85.725,0,0,0-1.985-14.037,107.209,107.209,0,0,0-3.75-13.6c-.662-1.974-1.544-4.167-2.426-6.8-1.1-2.632-1.985-4.606-2.868-6.58-.882-1.755-1.765-3.728-2.647-5.483a15.284,15.284,0,0,1-4.191,2.193c-.662.219-1.544.658-2.426.877-.662.219-1.544.219-2.206.439h-1.985c-.662,0-1.323-.219-1.985-.219-.221,0-.221-.219-.441-.439v-.439c1.544-1.974,3.309-3.948,4.853-5.922a28.544,28.544,0,0,0,2.206-3.29,6.552,6.552,0,0,0,.882-1.755c-2.206-3.29-4.632-6.8-7.72-10.747a143.776,143.776,0,0,0-9.926-10.966,75.456,75.456,0,0,0-10.809-8.992,83.743,83.743,0,0,0-23.6-12.282,72.967,72.967,0,0,0-13.235-3.29c-1.1-.219-2.206-.219-3.309-.439l.221-.658.221-.877a.7.7,0,0,0,.662-.658,1.137,1.137,0,0,0-.441-.877l.221-.658c.221-.877.221-1.755.441-2.632.441-2.632.662-5.483.882-8.554a78.109,78.109,0,0,0-.441-16.23,52.752,52.752,0,0,0-4.412-15.572,49.656,49.656,0,0,0-4.191-7.457c-1.544-2.193-3.309-4.387-5.515-7.019a67.753,67.753,0,0,0-11.029-9.212c-.221.658-.221,1.316-.441,1.974a49.156,49.156,0,0,1-1.765,5.264,18.434,18.434,0,0,1-2.426,4.606c-.441.658-1.1,1.535-1.544,2.193a13.28,13.28,0,0,1-1.765,1.755.415.415,0,0,1-.662,0c-.221,0-.221-.22-.221-.439.882-6.58,1.324-13.16,1.544-19.74a79.43,79.43,0,0,0-7.5-3.728c-1.324-.658-2.647-1.1-3.971-1.755,0,.219-.221.439-.221.658-.662,1.316-1.324,2.412-1.985,3.509a38.25,38.25,0,0,1-2.647,3.07,9.577,9.577,0,0,1-1.544,1.316,9.342,9.342,0,0,1-1.544,1.1.6.6,0,0,1-.882-.439c.221-2.632.662-5.264.882-7.9,0-1.316.221-2.632.221-3.948h0a24.2,24.2,0,0,0-3.75-1.1,124.527,124.527,0,0,0-15.661-3.509c-3.088-.439-6.4-.877-9.706-1.1a35.939,35.939,0,0,0-4.853-.219H27.4a4.922,4.922,0,0,0-1.985-.219" transform="translate(28.059 -113.244)" fill="#007374"/>
    <path id="Tracé_18" data-name="Tracé 18" d="M93.021,194.3h0" transform="translate(111.11 -33.533)" fill="#007374"/>
    <path id="Tracé_19" data-name="Tracé 19" d="M177.807,121.219c-1.765.658-3.75,1.316-5.515,1.974s-3.75,1.316-5.515,1.974c-4.191,1.316-7.941,2.851-11.691,4.167-5.294,1.974-10.367,4.167-15.22,6.361l.221.219a13,13,0,0,0,.882,1.755,4.048,4.048,0,0,1,.441,1.535,16.54,16.54,0,0,1,.662,3.509v1.755a3.712,3.712,0,0,1-.221,1.535.764.764,0,0,1-.221.439h-.441l-1.765-1.755h0a42.247,42.247,0,0,0-3.309-3.071c-.662-.439-1.1-.877-1.765-1.316a7.751,7.751,0,0,0-1.765-1.1c-.221.219-.441.219-.882.439-3.309,1.755-6.4,3.29-9.485,5.264.662.877,1.323,1.974,1.985,2.851.441.658.662,1.535,1.1,2.193.221.658.662,1.535.882,2.193a12.7,12.7,0,0,1,.662,4.167v.439l-.221.219h-.441c-1.765-1.316-3.309-2.632-5.073-3.948s-3.529-2.413-5.294-3.509H115.6c-1.765,1.1-3.529,2.413-5.294,3.729-.221.219-.441.439-.662.439a17.182,17.182,0,0,1,2.206,3.29A18.906,18.906,0,0,1,113.4,160.7c.221.658.221,1.316.441,1.974v1.755a.473.473,0,0,1-.441.439h-.221a.216.216,0,0,1-.221-.219l-.221-.219h0c-1.1-1.1-2.426-2.193-3.529-3.29-.662-.439-1.323-1.1-1.985-1.535l-1.985-1.316h0c-.221-.219-.441-.219-.662-.439A82.743,82.743,0,0,0,93.1,169.691a62.156,62.156,0,0,0-11.25,20.4,66.317,66.317,0,0,0-2.647,11.844,63.33,63.33,0,0,0,0,12.94,86.224,86.224,0,0,0,1.544,10.089c-7.279,3.729-14.117,9.87-20.294,18.423a114.627,114.627,0,0,0-7.72,12.721l2.647,1.974a26.355,26.355,0,0,1,2.426,2.632,4.587,4.587,0,0,1,.882,1.316l.662,1.316c.221.219,0,.439-.221.658s-.441.22-.441,0c-.882-.219-1.544-.658-2.426-.877h0a11.438,11.438,0,0,0-2.426-.439c-.882,0-1.765-.219-2.647-.219H49.868c-1.1,2.632-1.985,5.264-2.868,8.115-.221.658-.441,1.535-.662,2.193a10.33,10.33,0,0,1,2.206,1.1,14.862,14.862,0,0,1,2.426,1.535c.662.658,1.544,1.1,2.206,1.755a.765.765,0,0,1,.221.439v.219a.216.216,0,0,1-.221.219h-1.1a12.648,12.648,0,0,0-2.868.219,11.128,11.128,0,0,0-2.647.439,1.691,1.691,0,0,0-1.1.439c-.441,2.193-.662,4.387-.882,6.58a48.106,48.106,0,0,0,1.544,15.792c2.426,9.212,7.279,17.327,12.132,25.223l1.1,1.974c2.426,4.167,4.632,7.9,6.618,11.844a1.489,1.489,0,0,0,1.323.877,1.336,1.336,0,0,0,1.324-.658c1.544-2.632,3.088-5.044,4.632-7.676l2.426-4.167,2.206-3.509c2.647-4.387,5.956-9.87,9.044-15.792a101.011,101.011,0,0,0,7.059-16.669c0-.219,0-.219.221-.439-.662-.877-1.544-1.535-2.206-2.413a38.337,38.337,0,0,0-3.309-2.851,19.075,19.075,0,0,0-3.529-2.193h.221a22.325,22.325,0,0,0-3.309-1.535c-.221,0-.441-.219-.441-.658a.473.473,0,0,1,.441-.439,12.639,12.639,0,0,1,2.868-.219h1.985a17.4,17.4,0,0,1,4.853,1.1,23.606,23.606,0,0,1,4.191,1.535,1.65,1.65,0,0,1,.221-.877c.662-3.29,1.1-6.361,1.544-9.212a75.107,75.107,0,0,0,.882-13.6,65.913,65.913,0,0,0-.441-6.58,26.452,26.452,0,0,0-1.544-6.361c-1.324-3.948-3.088-7.457-4.853-11.4l-.662-1.535a72.223,72.223,0,0,1-4.191-9.431c1.544-.438,3.309-.877,5.735-1.535,2.868-.877,5.515-1.974,8.162-3.071a98.087,98.087,0,0,0,15.661-8.334c1.765-1.1,3.75-2.413,5.515-3.729a5.486,5.486,0,0,0-.882-1.535h0a27.915,27.915,0,0,0-2.868-4.167c-1.1-1.316-2.206-2.413-3.309-3.509a.41.41,0,0,1,0-.658c0-.219.221-.219.441-.219h0a38.6,38.6,0,0,1,4.853,1.1,21.017,21.017,0,0,1,4.632,1.974,19.081,19.081,0,0,1,3.529,2.193,114.408,114.408,0,0,0,14.779-14.476c1.544-1.755,3.088-3.509,4.412-5.264l.662-.658c1.765-1.974,3.309-4.167,5.073-6.36,2.426-3.071,4.412-5.922,6.617-8.554a23.969,23.969,0,0,0-2.868-3.728L153.1,160.7a.594.594,0,0,1,.441-.877h0a34.713,34.713,0,0,1,6.838,1.755,22.32,22.32,0,0,1,3.309,1.535l.221.219c3.309-4.825,6.176-9.87,8.823-14.695a127.147,127.147,0,0,0,6.838-15.353c.441-1.535,1.1-3.29,1.544-5.044a30.065,30.065,0,0,0,1.1-5.483,2.363,2.363,0,0,0-.662-1.535c-.221-.219-.441-.219-.882-.219a11.059,11.059,0,0,0-2.867.219" transform="translate(52.794 -121)" fill="#009f9d"/>
    <path id="Tracé_20" data-name="Tracé 20" d="M78.3,160.6h0" transform="translate(93.626 -73.746)" fill="#009f9d"/>
    <path id="Tracé_21" data-name="Tracé 21" d="M71.4,137.8Z" transform="translate(85.305 -100.953)" fill="#009f9d"/>
    <path id="Tracé_22" data-name="Tracé 22" d="M71.4,137.8h0" transform="translate(85.305 -100.953)" fill="#009f9d"/>
    <path id="Tracé_23" data-name="Tracé 23" d="M44.4,193h0" transform="translate(52.748 -35.084)" fill="#009f9d"/>
    <path id="Tracé_24" data-name="Tracé 24" d="M49.1,185.8h0" transform="translate(58.415 -43.676)" fill="#009f9d"/>
    <path id="Tracé_25" data-name="Tracé 25" d="M49.1,185.8h0" transform="translate(58.415 -43.676)" fill="#009f9d"/>
    <path id="Tracé_26" data-name="Tracé 26" d="M73.111,167.4a1.214,1.214,0,0,0-1.1.658,84.345,84.345,0,0,0-8.6,15.134A104.726,104.726,0,0,0,58.112,199.2a109.132,109.132,0,0,0-2.647,16.669c-.662,5.7-.882,11.4-1.1,17.108-.441,12.721,0,25.223-.441,37.944V270.7c0,1.535-.221,2.851-.221,4.387,0,.219.221.658.441.658s.662-.219.662-.439c.662-11.4.662-23.029,1.1-34.434h0c.221-7.676.882-15.353,1.765-23.029a102.844,102.844,0,0,1,1.985-11.4c.882-3.729,1.765-7.457,2.868-11.186h0v-.439h0a102.3,102.3,0,0,1,3.97-10.528,92.6,92.6,0,0,1,5.515-10.308c0,.219-.221.219-.221.439.882-1.535,1.985-2.851,2.868-4.387a3.1,3.1,0,0,0,.441-1.316,1.206,1.206,0,0,0-.662-1.1,7.858,7.858,0,0,0-1.323-.219h0M55.906,240.875h0m6.617-45.839h0" transform="translate(63.962 -65.632)" fill="#007374"/>
    <path id="Tracé_27" data-name="Tracé 27" d="M152.142,124.158c-1.544,1.535-3.088,3.071-4.632,4.387l.221-.219a233.1,233.1,0,0,1-21.617,17.327c-7.72,5.7-15.661,11.186-23.161,16.888a171.259,171.259,0,0,0-21.176,18.643,82.833,82.833,0,0,0-15.441,22.371,54.4,54.4,0,0,0-4.412,13.16,1.618,1.618,0,0,0,1.544,1.974c1.1.219,1.765-.439,1.985-1.535A54.7,54.7,0,0,1,67,211.45h0a68.237,68.237,0,0,1,3.309-8.554A85.392,85.392,0,0,1,74.5,195.22a122.767,122.767,0,0,1,7.941-10.747,102.784,102.784,0,0,1,9.706-9.87c3.309-3.071,7.059-6.141,10.588-8.992,3.75-3.07,7.5-5.922,11.47-8.773,7.72-5.7,15.441-11.186,22.72-17.108a180.33,180.33,0,0,0,16.764-14.914.992.992,0,0,0,0-1.1c-.221-.219-.221-.219-.441-.219-.662.439-.882.439-1.1.658m-60.44,51.1h0M66.776,211.45h0" transform="translate(73.827 -118.017)" fill="#007374"/>
    <path id="Tracé_28" data-name="Tracé 28" d="M220.812,148.039a123.178,123.178,0,0,0-18.088,1.535,115.252,115.252,0,0,0-16.544,4.387,107.985,107.985,0,0,0-28.014,14.914,145.112,145.112,0,0,0-19.191,16.888h0a1.872,1.872,0,0,0-1.323.439,147.238,147.238,0,0,0-21.838-17.546,112.108,112.108,0,0,0-13.456-7.019A65.671,65.671,0,0,0,87.8,157.25,92.787,92.787,0,0,0,71.7,155.5H70.154a50.108,50.108,0,0,0-5.735.219V160.1a34.294,34.294,0,0,1-.882,5.044,10.652,10.652,0,0,1-.882,2.413c-.221.658-.662,1.1-.882,1.755,0,.219-.221.219-.441.219a.772.772,0,0,1-.441-.219l-2.647-6.58a13.367,13.367,0,0,0-1.544-3.071c-.441-.877-1.1-1.755-1.544-2.632l-.221-.219h-.221a96.577,96.577,0,0,0-32.646,12.063,113.779,113.779,0,0,0-11.25,7.676A67.211,67.211,0,0,0,.671,185.982a.961.961,0,0,0-.221,1.1c.221.439.441.877.882.877a60.075,60.075,0,0,1,11.25,2.413,98.36,98.36,0,0,1,15.661,6.58c.441-.658.662-1.316,1.1-1.974h0c.441-1.1.882-2.193,1.324-3.509.221-1.1.662-2.193.882-3.29a1.968,1.968,0,0,1,.221-1.1c0-.219,0-.219.221-.439a.216.216,0,0,0,.221-.219h.221a.771.771,0,0,1,.441.219,11.138,11.138,0,0,1,1.544,3.729c.221,1.316.441,2.413.662,3.728a27.809,27.809,0,0,1-.221,4.167c0,.439-.221,1.1-.221,1.535.441.219.662.438,1.1.658a57.227,57.227,0,0,0,6.4,3.071c2.206,1.1,4.191,1.974,6.176,2.851l.662-1.316h0a31.188,31.188,0,0,0,1.765-4.825,41.271,41.271,0,0,0,1.1-5.044h0c.441-2.193.662-4.387.882-6.58a.473.473,0,0,1,.441-.439h.221c.221,0,.441,0,.441.219a38.043,38.043,0,0,1,3.309,11.844,53.483,53.483,0,0,1,.441,5.922v3.509c2.647.877,5.294,1.535,7.72,2.193a67.558,67.558,0,0,0,8.382,1.316c.662,0,1.324.219,1.765.219a10.219,10.219,0,0,0,1.1-2.193,31.179,31.179,0,0,0,1.765-4.825,38.018,38.018,0,0,0,1.1-4.825v.219c0-.219.221-.658.221-.877s0-.219.221-.439a.216.216,0,0,0,.221-.219H80.3c.221,0,.441,0,.441.219a14.514,14.514,0,0,1,1.985,4.167,30.97,30.97,0,0,1,1.1,4.825,29.231,29.231,0,0,1,.221,4.387,88.761,88.761,0,0,0,24.264-3.29,64.171,64.171,0,0,0,15.882-6.8,75.733,75.733,0,0,0,7.279-5.264c.882-.877,1.985-1.755,2.868-2.632l1.1.439.441.219.662.219,1.1.439,3.529,1.535.441.219.441.219,7.941,3.29c6.4,2.412,12.132,4.606,17.647,6.141a142.707,142.707,0,0,0,18.088,4.167,107.94,107.94,0,0,0,16.764,1.316h2.206a78.812,78.812,0,0,0,10.147-.658v-1.755a57.474,57.474,0,0,0-.441-6.141v.219c-.441-4.167-.882-8.115-1.1-12.282a.473.473,0,0,1,.441-.439h.441a.216.216,0,0,1,.221.219,70.2,70.2,0,0,1,9.706,10.089,55.551,55.551,0,0,1,3.97,5.922l.662,1.316a90.724,90.724,0,0,0,13.014-4.386,138.194,138.194,0,0,0,14.117-6.8,87.392,87.392,0,0,1-.221-13.16.473.473,0,0,1,.441-.439h0c.221,0,.221,0,.441.219a55.036,55.036,0,0,1,4.853,5.264c.882,1.1,1.544,2.193,2.426,3.29a23.12,23.12,0,0,0,2.426-1.755l1.544-1.1,4.632-3.29a137.035,137.035,0,0,0,12.794-9.431,67.685,67.685,0,0,0,5.735-5.264,24.2,24.2,0,0,0,4.191-5.483.664.664,0,0,0,0-.877c0-.439-.441-.658-.662-.877l-2.206-.877c-1.985-.877-4.191-1.755-6.4-2.851-2.868-1.316-5.735-2.413-8.823-3.509-5.956-2.193-12.132-4.387-18.088-6.141h0c-2.426,3.071-4.632,6.36-7.279,9.212a.415.415,0,0,1-.662,0c-.221,0-.221-.219-.221-.439a21.157,21.157,0,0,1,.221-3.728c.221-1.1.441-2.413.662-3.509a16.092,16.092,0,0,1,.882-3.071,81.43,81.43,0,0,0-9.485-1.974l-.882.877c-.882.877-1.765,1.974-2.647,2.851h0c-3.75,4.387-6.838,9.431-10.367,14.037a.813.813,0,0,1-.662.219.473.473,0,0,1-.441-.439c0-6.58.882-13.16,3.75-19.082-3.529-.219-7.059-.438-10.367-.438h-.662Z" transform="translate(-0.359 -89.259)" fill="#00b4b2"/>
    <path id="Tracé_29" data-name="Tracé 29" d="M108.8,150.4h0" transform="translate(130.403 -85.918)" fill="#00b4b2"/>
    <rect id="Rectangle_1" data-name="Rectangle 1" transform="translate(239.203 64.482)" fill="#00b4b2"/>
    <path id="Tracé_30" data-name="Tracé 30" d="M14.4,166.2h0" transform="translate(16.573 -67.064)" fill="#00b4b2"/>
    <path id="Tracé_31" data-name="Tracé 31" d="M13.4,169.3h0" transform="translate(15.367 -63.365)" fill="#00b4b2"/>
    <path id="Tracé_32" data-name="Tracé 32" d="M216.76,157.3a31.584,31.584,0,0,1-4.853,1.755,88.661,88.661,0,0,1-16.985,2.851c-5.956.439-11.691.658-17.647.658-2.868,0-5.515.219-8.382.439-3.529.219-7.059.439-10.588.439l-21.176.658c-6.617.219-13.235.658-19.853,1.1a191.109,191.109,0,0,0-19.191,2.413A166.391,166.391,0,0,0,80,171.776c-3.088.877-5.956,1.974-9.044,3.071-1.544.658-2.868,1.1-4.412,1.755l-3.971,1.974a1.718,1.718,0,0,0-.882.877,1.391,1.391,0,0,0,0,1.316,1.615,1.615,0,0,0,2.206.877c1.765-.877,3.309-1.755,5.073-2.632,1.985-.877,3.75-1.755,5.735-2.413a118.329,118.329,0,0,1,11.47-3.948h-.441c13.014-3.729,26.691-5.483,40.367-6.361,14.117-1.1,28.235-1.316,42.352-2.193,1.985-.219,3.75-.219,5.735-.439,1.985,0,3.971-.219,6.176-.219,4.191-.219,8.6-.219,12.794-.658a122.851,122.851,0,0,0,12.573-1.535,47.6,47.6,0,0,0,11.25-3.29.42.42,0,0,0,.221-.658c.22.219,0,0-.441,0h0" transform="translate(73.398 -77.684)" fill="#009f9d"/>
    <path id="Tracé_33" data-name="Tracé 33" d="M33.919,160.8a90.881,90.881,0,0,0-15.441,2.632,93.682,93.682,0,0,0-15,5.264c-.662.219-.221,1.316.441.877a103.638,103.638,0,0,1,10.588-3.948h0a89.664,89.664,0,0,1,25.367-3.509h-.221a142.518,142.518,0,0,1,37.279,4.825h-.441c4.412,1.1,8.6,2.413,13.014,3.729a62.578,62.578,0,0,1,6.838,2.413c2.426.877,4.632,1.755,7.059,2.413a111.79,111.79,0,0,0,14.117,3.729,40.849,40.849,0,0,0,7.279.658h3.75a24.455,24.455,0,0,0,3.971-.439,2.026,2.026,0,0,0,1.323-.877,4.047,4.047,0,0,0,.441-1.535,2.184,2.184,0,0,0-2.426-1.755,24.466,24.466,0,0,1-3.97.438,78.887,78.887,0,0,1-18.97-2.412h.221c-.662-.219-1.544-.439-2.206-.658l-9.264-2.632c-3.088-.877-6.176-1.974-9.265-2.851a158.642,158.642,0,0,0-17.647-4.167,69.233,69.233,0,0,0-9.044-1.316c-3.088-.439-6.176-.658-9.264-.877-2.647-.219-5.294-.219-7.72-.219a58.928,58.928,0,0,0-10.809.219m93.748,14.476h0Z" transform="translate(3.009 -73.944)" fill="#009f9d"/>
    <path id="Tracé_34" data-name="Tracé 34" d="M53.684,167.5c-.221,0-.441.219-.662.219-.662,1.1-1.324,2.193-1.985,3.509a33.659,33.659,0,0,0-1.765,4.167,22.841,22.841,0,0,0-.882,3.729,13.2,13.2,0,0,0,0,4.167c0,.219.221.439.662.439.221,0,.441-.219.441-.658v-1.755a7.419,7.419,0,0,1,.221-2.193,9.843,9.843,0,0,1,.662-2.413h0a15.169,15.169,0,0,1,1.1-2.851,18.09,18.09,0,0,1,1.544-2.851,23.086,23.086,0,0,1,1.544-2.413c.221-.439.221-.877-.221-1.1h-.662m-.882,3.728h0" transform="translate(57.36 -65.513)" fill="#009f9d"/>
    <path id="Tracé_35" data-name="Tracé 35" d="M47.4,165.539a30.1,30.1,0,0,0-2.868,4.387,59.427,59.427,0,0,0-2.426,5.483,23.916,23.916,0,0,0-1.324,5.7A15.306,15.306,0,0,0,41,186.594c0,.219.221.439.662.439.221,0,.441-.219.441-.658a13.411,13.411,0,0,1-.221-3.071h0a7.419,7.419,0,0,1,.221-2.193l.662-2.632v.219a22.565,22.565,0,0,1,3.088-6.58h0c1.1-1.755,2.426-3.509,3.75-5.264.221-.219.221-.439.221-.877,0-.219-.221-.658-.441-.658a.813.813,0,0,0-.662-.219c-.882,0-1.1.219-1.323.439" transform="translate(48.207 -68.377)" fill="#009f9d"/>
    <path id="Tracé_36" data-name="Tracé 36" d="M41.932,162.59A25.091,25.091,0,0,0,39.506,165a15.573,15.573,0,0,0-2.206,3.07,55.715,55.715,0,0,0-3.529,6.141,50.47,50.47,0,0,0-3.97,13.6c0,.219.221.658.441.658s.662-.219.662-.439c.221-2.193.882-4.386,1.323-6.58h0a34.677,34.677,0,0,1,1.544-4.387,46.333,46.333,0,0,1,2.426-4.606,37.243,37.243,0,0,1,2.206-3.07,36.495,36.495,0,0,1,2.868-3.071h0l.221-.219h0l1.544-1.535.221-.219a.678.678,0,0,0,.221-.439,1.313,1.313,0,0,0-.221-.877c-.221-.219-.441-.439-.662-.439h-.221c0-.219-.441-.219-.441,0m-9.485,18.643h0m9.044-15.353h0" transform="translate(35.143 -71.568)" fill="#009f9d"/>
    <path id="Tracé_37" data-name="Tracé 37" d="M49.941,158.779c-.221,1.535-.221,2.851-.441,4.387a38.607,38.607,0,0,0,.221,5.045,33.884,33.884,0,0,0,.882,4.606,14.509,14.509,0,0,0,1.985,4.167c.221.439.882.439,1.323.219a.824.824,0,0,0,.221-1.316c-.441-.658-.882-1.1-1.324-1.755-.221-.658-.662-1.1-.882-1.755l-.662-1.974a30.4,30.4,0,0,1-.882-7.676v.219a18.759,18.759,0,0,1,.221-3.509c0-.219-.221-.658-.441-.658h0c.221-.439,0-.439-.221,0m3.088,14.914h0" transform="translate(58.898 -76.312)" fill="#009f9d"/>
    <path id="Tracé_38" data-name="Tracé 38" d="M43.582,154.939a34.125,34.125,0,0,0-.662,11.624,55.807,55.807,0,0,0,1.1,5.922,23.583,23.583,0,0,0,2.647,5.264c.221.219.221.219.441.219h.662c.441-.219.441-.658.221-1.1a20,20,0,0,1-1.765-2.851,10.976,10.976,0,0,1-1.1-2.851,12.587,12.587,0,0,1-.662-3.07h0v-.219h0a26.724,26.724,0,0,1-.441-4.167v-3.948l.662-4.606c0-.219-.221-.658-.441-.658h-.221a.473.473,0,0,0-.441.439m2.647,19.081h0M44.244,168.1h0" transform="translate(50.698 -81.025)" fill="#009f9d"/>
    <path id="Tracé_39" data-name="Tracé 39" d="M34.862,154.6c-.221,0-.221,0-.441.219,0,.219-.221.219-.221.439v4.606a14.068,14.068,0,0,0,.662,4.387,37.59,37.59,0,0,0,3.088,8.773c0,.219.221.219.441.219h.662c.221,0,.221-.219.221-.438v-.658c-.441-.658-.662-1.316-1.1-1.974h0a25.465,25.465,0,0,1-2.426-7.238h0a24.031,24.031,0,0,1-.441-3.948v-4.167c.221,0-.221-.219-.441-.219Zm3.529,15.791h0m-2.426-7.238h0" transform="translate(40.448 -80.906)" fill="#009f9d"/>
    <path id="Tracé_40" data-name="Tracé 40" d="M24.241,154.5c-.221,0-.441.219-.441.658v1.755c0,.438.221,1.1.221,1.535a21.468,21.468,0,0,0,1.1,3.509,13.365,13.365,0,0,0,1.544,3.071c.662,1.1,1.323,2.413,1.985,3.509.221.219.662.439.882.219s.441-.658.221-.877c-.441-.877-1.1-1.535-1.544-2.413a11.792,11.792,0,0,1-1.544-2.851h0c-.441-.877-.662-1.535-1.1-2.413-.221-.877-.441-1.535-.662-2.413,0-.439-.221-.877-.221-1.316v-1.535c.221-.219,0-.439-.441-.439h0m.882,3.29h0" transform="translate(27.908 -81.025)" fill="#009f9d"/>
    <path id="Tracé_41" data-name="Tracé 41" d="M17.841,155.3c-.221,0-.441.219-.441.658a27.966,27.966,0,0,0,1.1,5.922,15.177,15.177,0,0,0,1.1,2.851,20,20,0,0,0,1.765,2.851c.221.219.441.439.882.219.221-.219.441-.439.221-.877a9.278,9.278,0,0,1-1.1-1.535c-.441-.658-.662-1.1-1.1-1.754a7.828,7.828,0,0,1-.882-2.413c-.221-.878-.441-1.755-.662-2.851a8.946,8.946,0,0,1-.221-2.413q-.331-.658-.662-.658Zm2.426,8.115h0" transform="translate(20.19 -80.071)" fill="#009f9d"/>
    <path id="Tracé_42" data-name="Tracé 42" d="M11.641,158.3c-.221,0-.441.439-.441.658a12.633,12.633,0,0,0,1.1,3.07c.441.877.882,1.974,1.323,2.851a.813.813,0,0,0,.662.219.8.8,0,0,0,.221-.658c-.221-.439-.662-1.1-.882-1.535v.219c-.221-.658-.662-1.316-.882-1.974s-.441-1.316-.662-2.193c.221-.658,0-.658-.441-.658h0" transform="translate(12.714 -76.491)" fill="#009f9d"/>
    <path id="Tracé_43" data-name="Tracé 43" d="M20.562,161.1c-.441.219-.441.439-.441.877.221.877.441,1.535.662,2.412h0a33.878,33.878,0,0,1,.441,9.431V173.6a57.359,57.359,0,0,1-1.324,8.554c0,.219.221.658.441.658s.662-.219.662-.439c.441-1.755.662-3.29,1.1-5.045.221-1.755.441-3.729.662-5.483a28.142,28.142,0,0,0-1.1-10.528,2,2,0,0,0-1.1-.219h0m.221,3.29h0" transform="translate(23.205 -73.15)" fill="#009f9d"/>
    <path id="Tracé_44" data-name="Tracé 44" d="M13.626,161.5a.583.583,0,0,0-.662.658v2.413a12.437,12.437,0,0,1-.221,2.851V167.2a35.939,35.939,0,0,1-1.324,7.019V174c0,.219-.221.439-.221.658v.439a.216.216,0,0,0,.221.219.423.423,0,0,0,.662-.219,10.814,10.814,0,0,0,.882-2.851c.221-1.1.441-2.413.662-3.509s.221-2.193.441-3.509v-3.509c.221,0,0-.219-.441-.219h0" transform="translate(12.714 -72.672)" fill="#009f9d"/>
    <path id="Tracé_45" data-name="Tracé 45" d="M129.273,156.119c-.882,1.1-1.985,1.974-2.868,3.071l-1.324,1.974a7.767,7.767,0,0,0-.882,1.974c0,.219,0,.658.441.658.221,0,.662,0,.662-.439.221-.439.221-.877.441-1.316a4.587,4.587,0,0,1,.882-1.316c.441-.439.662-1.1,1.1-1.535h0a12.594,12.594,0,0,1,2.426-2.412.41.41,0,0,0,0-.658c0-.219-.221-.219-.441-.219a.772.772,0,0,0-.441.219" transform="translate(148.973 -79.355)" fill="#009f9d"/>
    <path id="Tracé_46" data-name="Tracé 46" d="M122.759,154.639a21.86,21.86,0,0,0-2.206,2.412,14.1,14.1,0,0,0-2.206,2.851,18.085,18.085,0,0,0-1.544,2.851,19.222,19.222,0,0,0-1.1,3.29v.438a.216.216,0,0,0,.221.219c.22,0,.662,0,.662-.439l.662-1.974a7.767,7.767,0,0,1,.882-1.974v.219c.441-.877,1.1-1.974,1.544-2.851l1.985-2.632h0l1.985-1.974a.41.41,0,0,0,0-.658c0-.219-.22-.219-.441-.219l-.441.439" transform="translate(138.724 -81.383)" fill="#009f9d"/>
    <path id="Tracé_47" data-name="Tracé 47" d="M113.779,154.319a30.618,30.618,0,0,0-4.632,5.922,22.071,22.071,0,0,0-1.544,3.29,18.446,18.446,0,0,0-1.1,3.728c0,.219,0,.219.221.439a.771.771,0,0,0,.441.219c.221,0,.221,0,.441-.219a.764.764,0,0,0,.221-.439v-.219h0l.662-2.632a13.37,13.37,0,0,1,1.1-2.632V162a31.839,31.839,0,0,1,3.75-5.7h0l1.324-1.316a.41.41,0,0,0,0-.658c0-.219-.221-.219-.441-.219a.685.685,0,0,1-.441.219m-.662,2.193h0" transform="translate(127.63 -81.503)" fill="#009f9d"/>
    <path id="Tracé_48" data-name="Tracé 48" d="M104.6,150.319c-1.323,1.535-2.426,3.071-3.529,4.606-1.1,1.974-1.985,3.948-2.868,5.922a30.107,30.107,0,0,0-1.765,6.36c-.221.877-.221,1.974-.441,3.071v1.316a3.712,3.712,0,0,0,.221,1.535c0,.439.441.658.662.439.221,0,.221-.219.441-.219V169.4a19.1,19.1,0,0,1,.441-3.509,37.588,37.588,0,0,1,3.088-8.773h0a31.84,31.84,0,0,1,3.75-5.7h0l.221-.219a.765.765,0,0,0,.22-.439c0-.219,0-.219-.22-.439a.772.772,0,0,0-.441-.219h0c.662,0,.441,0,.221.219m-6.838,22.371Zm7.5-21.275h0" transform="translate(114.969 -86.276)" fill="#009f9d"/>
    <path id="Tracé_49" data-name="Tracé 49" d="M93.544,153.878a48.411,48.411,0,0,0-3.97,7.457,26.4,26.4,0,0,0-1.1,3.948,14.679,14.679,0,0,0-.221,4.387c0,.219.221.219.221.439.221,0,.221.219.441,0,.221,0,.221-.219.441-.219v-.658h0v-1.974a7.846,7.846,0,0,1,.441-2.413h0a16.076,16.076,0,0,1,.882-3.071,22.075,22.075,0,0,1,1.544-3.29v.219a38.124,38.124,0,0,1,2.426-3.948.419.419,0,0,0-.221-.658h-.221c-.441-.439-.441-.439-.662-.219m-3.97,15.353h0" transform="translate(105.513 -81.939)" fill="#009f9d"/>
    <path id="Tracé_50" data-name="Tracé 50" d="M81.315,155.7a.215.215,0,0,0-.221.219c0,.219-.221.439-.221.658v-.219a72.427,72.427,0,0,0-3.309,7.238l-1.324,3.948a21.489,21.489,0,0,0-.441,3.729c0,.219.221.658.441.658s.662-.219.662-.439v-1.535c0-.658.221-1.1.221-1.755v.219c.221-.658.441-1.316.662-2.193l.662-1.974c.662-1.535,1.324-2.851,1.985-4.387h0c.441-1.1,1.1-2.193,1.544-3.29v-.439a.216.216,0,0,0-.221-.219h-.221l-.221-.219m-.882,4.167h0" transform="translate(90.611 -79.593)" fill="#009f9d"/>
    <path id="Tracé_51" data-name="Tracé 51" d="M71.365,161.139a6.548,6.548,0,0,0-.882,1.755c-.221.658-.441,1.316-.662,2.193a6.042,6.042,0,0,0-.221,1.974v1.974a.764.764,0,0,0,.221.439c.221,0,.221.219.441,0,.441,0,.662-.439.441-.877v-2.412a2.767,2.767,0,0,1,.221-1.316h0a3.107,3.107,0,0,1,.441-1.316,3.1,3.1,0,0,0,.441-1.316c.221-.219.221-.439.441-.658s0-.658-.221-.877h-.221a.473.473,0,0,0-.441.439m-.221,3.729Z" transform="translate(83.135 -73.627)" fill="#009f9d"/>
    <path id="Tracé_52" data-name="Tracé 52" d="M124.421,159.1a.764.764,0,0,0-.221.439v.439a20.951,20.951,0,0,0,2.647,3.509,19,19,0,0,0,3.088,2.851c.221.219.662.219.662,0s.221-.658,0-.658c-.662-.658-1.544-1.1-2.206-1.755h0c-.662-.658-1.1-1.316-1.765-1.974a22.993,22.993,0,0,1-1.765-2.413c0-.219-.221-.219-.441-.219.221-.219.221-.219,0-.219" transform="translate(148.973 -75.536)" fill="#009f9d"/>
    <path id="Tracé_53" data-name="Tracé 53" d="M116.141,159.8c-.22,0-.22.219-.441.439v.439a32.432,32.432,0,0,0,1.765,2.851l2.647,3.29a41.332,41.332,0,0,0,5.515,5.264c.221.219.662.219.662,0,.221-.219.221-.658,0-.658a42.229,42.229,0,0,1-3.309-3.07h0c-1.1-1.1-1.985-2.193-3.088-3.29-.882-1.1-1.765-2.412-2.647-3.729h0a4.788,4.788,0,0,0-.662-1.1c0-.219-.221-.219-.441-.439h0m1.544,1.535h0" transform="translate(138.724 -74.701)" fill="#009f9d"/>
    <path id="Tracé_54" data-name="Tracé 54" d="M107.182,160a1,1,0,0,0-.882,1.1,27.632,27.632,0,0,0,1.323,6.141,63.8,63.8,0,0,0,3.088,6.8c1.1,2.193,2.426,4.167,3.529,6.141a48.139,48.139,0,0,0,3.75,5.483.415.415,0,0,0,.662,0,.41.41,0,0,0,0-.658,58.354,58.354,0,0,1-4.632-7.238h0l-3.309-6.58-1.324-3.29c-.441-1.1-.662-2.193-1.1-3.29h0a12.355,12.355,0,0,1-.662-3.948c.441-.439,0-.658-.441-.658h0m1.765,5.044h0" transform="translate(127.389 -74.462)" fill="#009f9d"/>
    <path id="Tracé_55" data-name="Tracé 55" d="M97.062,160.4a.778.778,0,0,0-.662.658v.439a37.655,37.655,0,0,0,1.544,4.606,32.2,32.2,0,0,0,2.206,4.825,68.861,68.861,0,0,0,5.294,8.554.415.415,0,0,0,.662,0,.41.41,0,0,0,0-.658,63.484,63.484,0,0,1-4.191-6.361v.219a44.423,44.423,0,0,1-4.191-10.089c0-.439-.221-.877-.221-1.316.221-.658,0-.877-.441-.877h0" transform="translate(115.451 -73.985)" fill="#009f9d"/>
    <path id="Tracé_56" data-name="Tracé 56" d="M88.882,161c-.221,0-.441.219-.662.439A.8.8,0,0,0,88,162.1a19.21,19.21,0,0,0,.441,3.729c.22,1.316.441,2.632.662,3.729.441,2.413,1.324,4.825,1.985,7.238.882,2.412,1.765,4.825,2.868,7.238s2.206,4.606,3.529,7.018a.814.814,0,0,0,.662.219.419.419,0,0,0,.221-.658c-1.324-2.413-2.426-4.825-3.529-7.238a45.084,45.084,0,0,1-2.647-7.677v.219c-.221-1.1-.662-2.193-.882-3.29s-.441-2.193-.662-3.509a16.953,16.953,0,0,1-.441-3.509c-.221-1.316-.221-2.632-.441-3.729.22-.439-.221-.877-.882-.877h0" transform="translate(105.322 -73.269)" fill="#009f9d"/>
    <path id="Tracé_57" data-name="Tracé 57" d="M76.462,162.4c-.441,0-.662.439-.662.877a17.17,17.17,0,0,0,1.765,5.7c.882,1.974,1.985,3.948,3.088,5.922a117.571,117.571,0,0,0,7.5,10.747.415.415,0,0,0,.662,0,.41.41,0,0,0,0-.658,76.624,76.624,0,0,1-7.279-10.747h0c-.662-1.316-1.544-2.632-2.206-4.167a22.692,22.692,0,0,1-.882-2.193c-.221-.877-.441-1.535-.662-2.413v.219a9.449,9.449,0,0,0-.221-1.1c0-.439-.221-.877-.221-1.535,0-.439-.22-.658-.882-.658h0m5.073,11.844h0" transform="translate(90.611 -71.598)" fill="#009f9d"/>
    <path id="Tracé_58" data-name="Tracé 58" d="M70.294,164.4c-.441,0-.882.439-.662.877a18.451,18.451,0,0,0,1.1,3.729,30.977,30.977,0,0,0,1.765,3.948c1.323,2.413,2.868,4.606,4.412,7.019a.674.674,0,0,0,.882,0,1.313,1.313,0,0,0,.221-.877c-1.1-1.755-2.426-3.509-3.309-5.264a20,20,0,0,1-1.544-3.07,19.227,19.227,0,0,1-1.1-3.29h0a10.958,10.958,0,0,1-.441-2.632c-.441,0-.662-.439-1.323-.439h0" transform="translate(83.103 -69.212)" fill="#009f9d"/>
  </g>
  <g id="Groupe_3" data-name="Groupe 3" transform="translate(178.764 448.305)">
    <path id="Tracé_59" data-name="Tracé 59" d="M118.017,325.4a34.674,34.674,0,0,0-12.132,2.193,35.934,35.934,0,0,0-5.956,2.851,33.662,33.662,0,0,0-4.853,3.509,32.442,32.442,0,0,0-9.485,12.941,18,18,0,0,0-1.324,4.167,35.44,35.44,0,0,0-.882,4.167,26.443,26.443,0,0,0-.221,4.387,42.348,42.348,0,0,1-.441-5.264.583.583,0,0,0-.662-.658.7.7,0,0,0-.662.658,41.451,41.451,0,0,0,2.206,12.5,42.687,42.687,0,0,0,3.75,7.9A41.838,41.838,0,0,1,97.944,371.9a35.927,35.927,0,0,1,4.853-.219h1.985c1.1,0,2.206.219,3.088.219,1.1.219,2.426.439,3.529.658.221,0,.441.439.441.658a.473.473,0,0,1-.441.439h-2.647a11.132,11.132,0,0,0-2.647.439h0a16.316,16.316,0,0,0-3.088.877c-1.1.439-1.985.877-3.088,1.316h.221a38.392,38.392,0,0,0-3.971,2.413c-1.324.877-2.426,1.974-3.75,2.851h0l-.22.219a86.63,86.63,0,0,0,16.544,15.353c1.323.878,2.647,1.755,3.75,2.632a29.582,29.582,0,0,1,3.97-1.535,11.14,11.14,0,0,1,2.647-.439c.882,0,1.544-.219,2.426-.219h.441c.221,0,.221,0,.441.219a.765.765,0,0,1,.221.439c0,.219,0,.219-.221.439l-.221.219h-.221a7.737,7.737,0,0,0-1.765,1.1c-.441.438-.882.658-1.324,1.1h0a13.291,13.291,0,0,0-1.765,1.755c3.75,2.193,7.72,4.167,11.911,6.141,3.309,1.535,6.838,2.851,10.588,4.387a101.036,101.036,0,0,0,9.706,3.07h0c-.221-.219-.221-.438-.441-.658a14.645,14.645,0,0,1-1.544-3.948,13.7,13.7,0,0,1-.662-4.167V403.7a11.054,11.054,0,0,1,.441-2.851.772.772,0,0,1-.441-.22h0c-.882-.219-1.765-.439-2.868-.658-.882-.219-1.544-.219-2.426-.439s-1.985-.439-2.868-.658-1.765-.439-2.426-.658a.216.216,0,0,1-.221-.22l-.221-.219v-.439a3.956,3.956,0,0,1,1.544-1.1c.441-.219,1.1-.439,1.544-.658a18.712,18.712,0,0,1,3.75-1.1,28.255,28.255,0,0,1,6.176-.439h0c.662-2.412,1.544-4.825,2.206-7.238h0v-.219h0c.441-1.1.662-2.413,1.1-3.509h0c-.662-.22-1.324-.658-1.985-.877h.221a18.42,18.42,0,0,0-3.309-.877l-3.309-.658a18.474,18.474,0,0,1-3.309-.877c-.441-.219-.882-.219-1.324-.439s-1.1-.439-1.544-.658c-.221,0-.221-.22-.221-.439s0-.439.221-.439a26,26,0,0,1,4.191-2.413,49.821,49.821,0,0,1,5.294-1.755,44.5,44.5,0,0,1,5.294-.877h2.426c.441-3.509.882-7.018,1.1-10.528h0v-2.413a7.847,7.847,0,0,0-.441-2.413,39.433,39.433,0,0,0-2.206-8.115,34.251,34.251,0,0,0-4.412-7.676,49.565,49.565,0,0,0-5.515-6.361,23.741,23.741,0,0,0-5.294-3.948,40.411,40.411,0,0,0-6.176-3.07,54.284,54.284,0,0,0-6.4-1.755,20.228,20.228,0,0,0-7.279-1.1ZM85.591,368.388a3.689,3.689,0,0,1,.441,1.1,1.671,1.671,0,0,1-.441-1.1" transform="translate(-81.4 -325.4)" fill="#009f9d"/>
    <g id="Groupe_3-2" data-name="Groupe 3" transform="translate(17.996 25.003)">
      <path id="Tracé_60" data-name="Tracé 60" d="M99.8,358.9Z" transform="translate(-77.209 -310.429)" fill="#00b4b2"/>
      <path id="Tracé_61" data-name="Tracé 61" d="M100.9,352.889Z" transform="translate(-75.883 -317.797)" fill="#00b4b2"/>
      <path id="Tracé_62" data-name="Tracé 62" d="M136.855,351.056l-6.617-.658h-1.765a42.7,42.7,0,0,0-5.294.22c-2.426.219-4.853.439-7.279.877a30.55,30.55,0,0,0-6.4,1.755c-.221-2.413-.441-4.606-.662-7.019V342.5c0-1.1.221-2.412.221-3.509a2.363,2.363,0,0,0-.662-1.535,2.008,2.008,0,0,0-1.544-.658h0a2.009,2.009,0,0,0-1.544.658c0,.219-.22.219-.22.439a1.635,1.635,0,0,0-.221,1.1,42.1,42.1,0,0,0,0,7.457,48.562,48.562,0,0,0,1.1,7.9c.662,3.29,1.544,6.58,2.426,9.65h-.221a7.543,7.543,0,0,0-2.206.219c-.662,0-1.544.219-2.206.219a35.428,35.428,0,0,0-4.632,1.1,54.571,54.571,0,0,0-9.264,3.729c-.221.219-.441.439-.221.658a.423.423,0,0,0,.662.219,46.217,46.217,0,0,1,9.044-3.728,23.183,23.183,0,0,1,3.75-.877,21.513,21.513,0,0,1,3.75-.219H108.4c.221,0,.441,0,.441-.219h0a26.037,26.037,0,0,0,1.765,4.387,22.04,22.04,0,0,0,1.544,3.29,43.852,43.852,0,0,0-5.735,1.755,54.923,54.923,0,0,0-6.176,3.29.409.409,0,0,0,0,.658c0,.219.221.219.441.219h.441a.685.685,0,0,1,.441-.219h0a38.329,38.329,0,0,1,8.6-3.948c.662-.219,1.1-.219,1.765-.439.441,0,.882-.219,1.323-.219a18.084,18.084,0,0,0,1.544,2.851l1.985,3.29c.882,1.1,1.544,2.413,2.426,3.51a40.073,40.073,0,0,0,2.868,3.509,11.042,11.042,0,0,0-1.765,1.536,19.21,19.21,0,0,0-1.765,2.193c-.221.22-.221.658,0,.658.221.219.662.219.662,0a3.852,3.852,0,0,1,.882-1.1c.221-.439.662-.658.882-.877l.662-.658c.221-.219.662-.439.882-.658.441.658,1.1,1.1,1.544,1.755a65.075,65.075,0,0,0,5.735,5.264,4.8,4.8,0,0,1,1.1.877.415.415,0,0,0,.662,0c.221-.22.221-.658,0-.658a41.436,41.436,0,0,1-6.838-7.019,59.491,59.491,0,0,1-5.294-7.677c-.662-1.1-1.1-1.974-1.765-3.07.662,0,1.544-.22,2.206-.22,1.1-.22,1.985-.22,3.088-.439,2.206-.219,4.412-.439,6.617-.439a28.253,28.253,0,0,1,6.176.439c.221,0,.662-.219.662-.439s-.221-.658-.441-.658a30.019,30.019,0,0,0-4.412-.439h-4.853a39.545,39.545,0,0,0-5.073.439,26.147,26.147,0,0,0-4.412.877h0c-.662-1.535-1.544-3.071-2.206-4.606v.22c0-.22,0-.22-.221-.439h0c-.221-.658-.662-1.535-.882-2.193a1.333,1.333,0,0,1,.882-.219h0c.441,0,.882-.219,1.323-.219s.882-.219,1.324-.219c.882,0,1.765-.219,2.868-.219h0c2.206,0,4.412.219,6.618.439.22,0,.662-.219.662-.439s-.22-.658-.441-.658a62.617,62.617,0,0,0-6.4-.439h-.441a19.1,19.1,0,0,0-3.529.219c-1.1.22-2.206.439-3.088.658a92.533,92.533,0,0,1-3.75-13.379,6.847,6.847,0,0,1,1.765-.438h-.221c1.324-.439,2.647-.658,3.97-1.1a34.541,34.541,0,0,1,4.632-.877c3.088-.439,6.176-.658,9.044-.877,2.647,0,5.294.22,7.72.439.221,0,.662-.219.662-.439C137.3,351.495,137.075,351.056,136.855,351.056Z" transform="translate(-89.559 -336.8)" fill="#00b4b2"/>
    </g>
  </g>
  <g id="Groupe_4" data-name="Groupe 4" transform="translate(211.851 386.717)">
    <path id="Tracé_63" data-name="Tracé 63" d="M141.62,298.154a67.472,67.472,0,0,0-11.912,2.851,53.5,53.5,0,0,0-11.25,5.483,43.033,43.033,0,0,0-9.485,8.334,48.96,48.96,0,0,0-7.279,11.186,63.057,63.057,0,0,0-4.632,14.256,37.793,37.793,0,0,0-.662,7.018c0,1.974.221,4.167.441,6.58a54.712,54.712,0,0,0,3.529,11.844,43.814,43.814,0,0,0,6.838,10.308,45.486,45.486,0,0,0,8.823,8.334,84.72,84.72,0,0,0,11.029,7.019,80.22,80.22,0,0,0,12.353,5.264,98.627,98.627,0,0,0,12.794,3.29,91.36,91.36,0,0,0,13.014,1.535h2.647a29.7,29.7,0,0,0,4.412-.22,34.2,34.2,0,0,1,1.765-6.8,31.98,31.98,0,0,1,3.529-7.9,86.683,86.683,0,0,1,4.853-7.457,90.533,90.533,0,0,1,6.176-6.8.771.771,0,0,1,.441-.219c.221,0,.221,0,.441.219a.41.41,0,0,1,0,.658c-.662.877-1.1,1.974-1.765,2.851h0a13.374,13.374,0,0,0-1.1,2.632l-.662,2.632a26.724,26.724,0,0,0-.441,4.167v3.948a74.087,74.087,0,0,0,1.544,10.089c9.264-1.755,18.529-4.387,26.029-6.58a41.509,41.509,0,0,1,3.088-8.773,29.567,29.567,0,0,1,3.309-5.7,28.263,28.263,0,0,1,4.191-4.605.771.771,0,0,1,.441-.22h.221a.8.8,0,0,1,.221.658,58.526,58.526,0,0,0-1.544,5.922,29.077,29.077,0,0,0-.662,6.141v3.948c2.206-.658,4.412-1.316,6.618-1.755a140.686,140.686,0,0,1,16.1-3.29h1.1a44.473,44.473,0,0,1,5.294-.877,59.751,59.751,0,0,1,6.176-.877,1.636,1.636,0,0,0-.221-1.1,133.8,133.8,0,0,1-9.044-16.45l-.441-.877c-1.544-3.07-2.868-5.922-4.632-8.773-1.324-2.412-2.868-5.044-4.632-8.115a125.205,125.205,0,0,0-9.044-13.16c-3.529,1.316-7.059,2.851-10.809,4.167-.221,0-.441,0-.441-.22a.677.677,0,0,1-.221-.439c.441-1.316.882-2.413,1.324-3.509.662-1.1,1.323-2.413,1.985-3.29a16.57,16.57,0,0,1,2.426-3.071c-2.426-2.632-4.853-5.044-7.279-7.457a94.136,94.136,0,0,0-13.235-9.87,59.38,59.38,0,0,0-10.588-5.264,105.305,105.305,0,0,0-24.705-7.238,92.74,92.74,0,0,0-13.455-1.1h-.882a46.113,46.113,0,0,0-12.132.658" transform="translate(-96.4 -297.32)" fill="#c6e387"/>
    <path id="Tracé_64" data-name="Tracé 64" d="M236.038,359.755c-2.427-1.755-4.853-3.509-7.279-5.483-2.426-1.754-4.853-3.509-7.279-5.044a4.833,4.833,0,0,1-1.1-.658h0a21.986,21.986,0,0,1,2.426-2.194c.882-.657,1.985-1.316,2.868-1.974.662-.438,1.323-.658,1.985-1.1a.215.215,0,0,0,.221-.219v-.438a.473.473,0,0,0-.441-.439h-.221a39.846,39.846,0,0,0-8.161,5.264h0c-4.191-2.632-8.382-5.264-12.794-7.677a29.481,29.481,0,0,1,2.426-3.071c3.088-3.071,7.059-5.483,10.588-7.9a.41.41,0,0,0,0-.658.771.771,0,0,0-.441-.219h0c-.221,0-.221,0-.441.219-2.647,1.754-5.294,3.29-7.72,5.044-1.1.877-2.427,1.974-3.309,2.851a38.3,38.3,0,0,0-2.647,3.071,144.513,144.513,0,0,0-14.559-6.8,39.868,39.868,0,0,0-4.632-1.755l1.324-1.974c.662-.877,1.1-1.755,1.765-2.632a35.889,35.889,0,0,1,3.75-4.387,48.329,48.329,0,0,1,10.588-8.115.41.41,0,0,0,0-.658c-.221-.219-.221-.219-.441-.219h-.441c-1.765,1.1-3.529,2.193-5.294,3.51s-3.309,2.632-4.853,3.948a41.559,41.559,0,0,0-4.412,4.387c-.662.658-1.324,1.535-2.206,2.413a13.187,13.187,0,0,0-1.985,2.851v.219c-.441-.219-.882-.219-1.1-.439l-8.6-2.632c-4.853-1.316-9.926-2.413-15-3.29a99.689,99.689,0,0,0-16.1-1.316h-3.529a118.858,118.858,0,0,0-29.117,3.509,2.2,2.2,0,0,0-1.1.877,3.524,3.524,0,0,0-.662,1.974,2.7,2.7,0,0,0,.882,1.755,2.23,2.23,0,0,0,1.985.658q8.6-1.645,17.205-2.632a138.9,138.9,0,0,1,16.544-.439,152.725,152.725,0,0,1,19.853,2.193c-.221.219-.662.219-.882.439a72.446,72.446,0,0,0-6.838,4.387c-2.206,1.535-4.191,3.07-6.176,4.606-1.985,1.755-3.97,3.509-5.956,5.483A103,103,0,0,0,134.57,356.9c-3.309,4.386-6.176,8.773-9.044,13.379-.221.219-.221.658,0,.658.221.22.662.22.662-.22a112.784,112.784,0,0,1,8.162-11.843,108.253,108.253,0,0,1,9.264-10.747h0a83.808,83.808,0,0,1,7.941-7.238,81.839,81.839,0,0,1,9.044-6.141c1.765-.877,3.309-1.755,5.073-2.632.882-.439,1.985-.877,2.868-1.316,2.647.658,5.515,1.316,8.162,1.974A80.633,80.633,0,0,0,160.6,350.1a49.528,49.528,0,0,0-3.529,5.7l-3.309,5.922a78.116,78.116,0,0,0-5.073,12.5c0,.219,0,.658.221.658s.662,0,.662-.219a79.023,79.023,0,0,1,2.868-7.676,50.642,50.642,0,0,1,3.97-7.677h0a79.417,79.417,0,0,1,5.956-8.992c2.206-2.851,4.632-5.7,7.059-8.334,1.765-1.754,3.309-3.29,5.073-4.825a36.6,36.6,0,0,1,4.632-3.509c1.544.439,2.868.877,4.412,1.316,3.088.877,6.176,2.193,9.044,3.29a24.877,24.877,0,0,0-4.853,5.922,60.28,60.28,0,0,0-4.412,8.335,61.064,61.064,0,0,0-2.868,8.992c-.662,3.071-1.324,6.141-1.765,9.212,0,.22.221.658.441.658s.662-.219.662-.439c.221-1.1.441-2.413.662-3.51.221-1.316.662-2.632.882-3.947a64.093,64.093,0,0,1,5.515-14.037,49.584,49.584,0,0,1,2.868-4.387c1.1-1.316,2.206-2.851,3.309-3.948l1.985-1.974c3.529,1.316,6.838,2.851,10.147,4.387.441.219,1.1.658,1.544.877a19.826,19.826,0,0,0-1.985,2.194c-.882,1.1-1.544,2.193-2.426,3.29l-1.985,3.29c-.662,1.1-1.1,2.413-1.765,3.509a.419.419,0,0,0,.221.658c.221,0,.662,0,.662-.219a17.441,17.441,0,0,1,1.765-3.509h0a38.085,38.085,0,0,1,2.426-3.948,23.525,23.525,0,0,1,3.088-3.509l-.221.22,1.1-1.1c4.412,2.193,8.823,4.606,13.014,7.018a3.035,3.035,0,0,0-.662.877,3.53,3.53,0,0,0-.882,1.535,18.1,18.1,0,0,0-1.544,2.851,38.456,38.456,0,0,0-2.206,6.58v.439a.216.216,0,0,0,.221.219h.441a.215.215,0,0,0,.221-.219c.441-1.535.882-2.851,1.324-4.386.662-1.535,1.323-3.071,1.985-4.387.441-.658.662-1.1,1.1-1.755a4.794,4.794,0,0,1,.882-1.1c1.324.877,2.868,1.755,4.191,2.632h-.22c2.647,1.755,5.514,3.509,8.161,5.483a.674.674,0,0,0,.882,0C236.259,360.414,236.259,359.975,236.038,359.755Z" transform="translate(-82.292 -279.085)" fill="#9dc863"/>
  </g>
  <g id="Groupe_5" data-name="Groupe 5" transform="translate(385.671 263.412)">
    <path id="Tracé_65" data-name="Tracé 65" d="M202.132,241.977c-7.5,14.914-14.338,30.267-20.735,45.839a1.7,1.7,0,0,0,.662,2.193,1.793,1.793,0,0,0,2.206-.658c6.4-15.572,13.235-30.706,20.735-45.839a1.7,1.7,0,0,0-.662-2.193c-.221,0-.441-.219-.662-.219a1.858,1.858,0,0,0-1.544.877" transform="translate(-167.942 -241.1)" fill="#10303c"/>
    <path id="Tracé_66" data-name="Tracé 66" d="M207.185,243.353l-.882.219c-10.368,2.193-20.956,4.387-31.1,7.9h.441c.441,0,.662.219,1.1.439a11.847,11.847,0,0,1,2.427,1.1,12.1,12.1,0,0,1,1.985,1.535,10.9,10.9,0,0,1,2.868,4.167c.221.439.221.658.441,1.1l3.309-1.316a11.127,11.127,0,0,1,2.647-.439,10.807,10.807,0,0,1,2.647.219,12.5,12.5,0,0,1,2.647.877,12.1,12.1,0,0,1,1.985,1.535,4.785,4.785,0,0,1,.882,1.1l.662,1.316a6.408,6.408,0,0,1,.662,2.193,6.71,6.71,0,0,1,1.544-1.1,7.93,7.93,0,0,1,2.426-.877,4.537,4.537,0,0,1,2.427,0c.662.219,1.544.438,2.206.658a14.573,14.573,0,0,1,4.412,3.07,8.6,8.6,0,0,1,1.765,2.193,9.526,9.526,0,0,1,.882,1.535l.221-.219.882-.877a8.95,8.95,0,0,1,1.985-1.1,7.871,7.871,0,0,1,2.206-.439,7.542,7.542,0,0,1,2.206.219,18.788,18.788,0,0,1,4.853,1.974,1.675,1.675,0,0,0,.882.439.764.764,0,0,0-.221-.439c-1.985-2.632-3.97-5.483-5.735-8.334-4.191-6.141-8.6-12.282-13.235-18.2-.22-.439-.662-.439-1.1-.439a2.542,2.542,0,0,0-1.323,0" transform="translate(-175.2 -238.528)" fill="#e7384d"/>
    <path id="Tracé_67" data-name="Tracé 67" d="M201.449,244.1a118.577,118.577,0,0,0-21.4,9.87,1.055,1.055,0,0,0-.221,1.535,1.033,1.033,0,0,0,1.544.219c3.088-1.755,6.176-3.509,9.264-5.044h0a107.72,107.72,0,0,1,11.691-4.606.976.976,0,0,0,.662-1.316,1.214,1.214,0,0,0-1.1-.658h-.441m-10.809,6.8h0" transform="translate(-169.905 -237.52)" fill="#d43346"/>
    <path id="Tracé_68" data-name="Tracé 68" d="M193.051,244.219c-.22,0-.441.219-.662.439-1.765,4.606-3.971,8.992-5.735,13.818,0,.219-.221.438,0,.877,0,.219.22.439.441.658a.674.674,0,0,0,.882,0c.221,0,.441-.219.662-.439,1.765-4.606,3.971-9.212,5.735-13.818,0-.219.22-.438,0-.877,0-.219-.221-.439-.441-.658a.772.772,0,0,1-.441-.219.685.685,0,0,1-.441.219" transform="translate(-161.507 -237.64)" fill="#d43346"/>
    <path id="Tracé_69" data-name="Tracé 69" d="M189.952,244.12c-.22,0-.441.219-.662.439a.664.664,0,0,0,0,.877,151.966,151.966,0,0,1,8.161,19.52.984.984,0,0,0,1.324.658c.441-.219.882-.877.662-1.316a166.245,166.245,0,0,0-8.162-19.52c-.221-.219-.221-.439-.441-.658-.221,0-.221-.22-.441-.22-.221.22-.221.22-.441.22" transform="translate(-158.409 -237.759)" fill="#d43346"/>
  </g>
  <path id="Tracé_8-2" data-name="Tracé 8" d="M146.8,255.4h0l24.926,27.855,23.6,26.1c-.662,8.115-1.324,16.669-1.765,27.855,0,.439.221.658.441,1.1l-22.941,11.405,23.823,1.316,23.6,1.316-7.941-5.264-13.9-8.992a1.659,1.659,0,0,0,.441-.877c.441-11.405.882-19.959,1.765-28.074L224,286.764l28.676-25.442-52.719-2.851Z" transform="translate(176.225 39.376)" fill="#fefefe"/>
  <g id="Groupe_6" data-name="Groupe 6" transform="translate(339.128 305.523)">
    <path id="Tracé_71" data-name="Tracé 71" d="M154.1,260.3h0l34.19,37.944,20.073-17.985,18.088-16.011-36.176-1.974Z" transform="translate(-154.1 -260.3)" fill="#fe6d77"/>
    <path id="Tracé_72" data-name="Tracé 72" d="M169.912,271.69a3.2,3.2,0,0,0,3.309,3.071,3.342,3.342,0,0,0,3.088-3.29A3.2,3.2,0,0,0,173,268.4a3.059,3.059,0,0,0-3.088,3.29" transform="translate(-135.059 -250.635)" fill="#fe606b"/>
    <path id="Tracé_73" data-name="Tracé 73" d="M170.5,266.67a1.735,1.735,0,0,0,1.765,1.755,1.892,1.892,0,0,0,1.765-1.755,1.735,1.735,0,0,0-1.765-1.755c-1.1-.219-1.765.877-1.765,1.755" transform="translate(-134.324 -254.827)" fill="#fe606b"/>
    <path id="Tracé_74" data-name="Tracé 74" d="M173.5,268.635c0,.877.662,1.316,1.544,1.316s1.324-.658,1.324-1.535-.662-1.316-1.544-1.316-1.323.658-1.323,1.535" transform="translate(-130.707 -252.186)" fill="#fe606b"/>
    <path id="Tracé_75" data-name="Tracé 75" d="M175.8,266.013a2.262,2.262,0,0,0,2.426,2.194,2.408,2.408,0,0,0,2.206-2.413,2.262,2.262,0,0,0-2.427-2.193,2.559,2.559,0,0,0-2.206,2.412" transform="translate(-127.933 -256.362)" fill="#fe606b"/>
    <path id="Tracé_76" data-name="Tracé 76" d="M170.919,273.455a1.7,1.7,0,0,0,1.765,1.535,1.557,1.557,0,0,0,1.544-1.755,1.7,1.7,0,0,0-1.765-1.535,1.557,1.557,0,0,0-1.544,1.755" transform="translate(-133.861 -246.697)" fill="#fe606b"/>
    <path id="Tracé_77" data-name="Tracé 77" d="M164.6,268.574a1.8,1.8,0,0,0,1.985,1.755,1.924,1.924,0,0,0,1.765-1.974,1.8,1.8,0,0,0-1.985-1.754,2.113,2.113,0,0,0-1.764,1.974" transform="translate(-141.439 -252.782)" fill="#fe606b"/>
    <path id="Tracé_78" data-name="Tracé 78" d="M164,264.858a.583.583,0,0,0,.662.658.7.7,0,0,0,.662-.658.583.583,0,0,0-.662-.658.7.7,0,0,0-.662.658" transform="translate(-142.162 -255.646)" fill="#fe606b"/>
  </g>
  <g id="Groupe_7" data-name="Groupe 7" transform="translate(20.24 187.252)">
    <path id="Tracé_79" data-name="Tracé 79" d="M221.907,310.073l-1.985-1.316a13.53,13.53,0,0,0-2.647-1.1h0a2.811,2.811,0,0,0,.882-2.632,4.844,4.844,0,0,0-2.426-3.071h0a4.113,4.113,0,0,0,.441-1.755,2.481,2.481,0,0,0-.662-1.754,3.045,3.045,0,0,0-.882-.658,3.192,3.192,0,0,0,1.323-1.974,3.7,3.7,0,0,0,0-2.193c-.221-.658-.882-1.1-1.323-1.755a6.916,6.916,0,0,0-2.206-1.1,20.736,20.736,0,0,0-3.529-.877,21.848,21.848,0,0,0-3.75-.439,17.114,17.114,0,0,0-3.309.439,7.1,7.1,0,0,0-3.971,2.632,4.039,4.039,0,0,0,0,4.167c0,.219.221.219.441.439h-.22a43.161,43.161,0,0,1-13.014,0,74.793,74.793,0,0,1-16.985-4.606,84.14,84.14,0,0,1-15.661-8.773,50.756,50.756,0,0,1-7.941-7.457,3.742,3.742,0,0,0-5.294,0,3.758,3.758,0,0,0,0,5.264c7.941,8.554,18.088,14.695,28.9,18.862A65.847,65.847,0,0,0,197.2,304.59v.439c.22.439.22.877.662,1.316a6.693,6.693,0,0,0,1.765,1.755,19.434,19.434,0,0,0,2.206,1.316,11.849,11.849,0,0,0,2.426,1.1,12.108,12.108,0,0,0,3.971.219h.662a3.036,3.036,0,0,0,.882.658c.662.439,1.1.877,1.765,1.316a37.791,37.791,0,0,0,5.073,2.852,9.551,9.551,0,0,0,4.853.877,3.741,3.741,0,0,0,3.088-3.29A10.95,10.95,0,0,0,221.907,310.073Z" transform="translate(145.508 -124.249)" fill="#10303c"/>
    <g id="Groupe_11" data-name="Groupe 11">
      <g id="Groupe_8" data-name="Groupe 8">
        <path id="Tracé_80" data-name="Tracé 80" d="M102.883,207.965c-9.926,2.851-19.632,9.65-28.455,19.958A119.561,119.561,0,0,0,63.178,243.5C60.09,248.54,57,254.243,53.693,260.822c-5.956,12.063-10.588,24.565-14.338,34-2.206,5.922-4.412,12.282-6.618,18.424-3.309,9.212-6.176,18.643-8.823,28.074a445.194,445.194,0,0,0-11.47,50.445c-.662,3.729-1.1,7.238-1.544,10.966.441,1.316.662,2.413,1.1,3.729a55.62,55.62,0,0,0,3.529,8.334v-.219a51.024,51.024,0,0,0,4.412,7.457,45.892,45.892,0,0,0,5.073,6.361h0a62.289,62.289,0,0,0,6.617,6.58c2.426,1.974,4.853,3.948,7.279,5.7h-.221a79.584,79.584,0,0,0,11.029,6.36,108.945,108.945,0,0,0,11.691,4.825h-.221a144.907,144.907,0,0,0,39.926,7.9h0a238.735,238.735,0,0,0,28.014.219q6.618-.329,13.235-1.316c2.206-.219,4.191-.658,6.4-.877l7.279-1.316h-.221a267.537,267.537,0,0,0,34.632-8.992c5.735-1.974,11.25-3.948,16.985-6.141,5.294-2.193,10.809-4.606,15.882-7.238H223.1a229.837,229.837,0,0,0,25.808-14.7c4.191-2.851,8.382-5.7,12.353-8.554a114.007,114.007,0,0,0,11.25-9.212h0a180.984,180.984,0,0,0,18.529-18.2c2.868-3.29,5.735-6.58,8.6-10.089,2.426-3.07,4.853-6.36,7.279-9.65-4.191-5.922-8.6-11.624-13.014-17.327l-.221-.219c-9.485-12.283-19.632-24.126-30.22-35.75-12.353-13.6-25.588-26.977-39.7-39.918-5.294-4.825-11.25-10.308-18.75-16.669-6.838-6.141-12.794-10.966-18.529-15.353a245.712,245.712,0,0,0-20.514-14.695,132.621,132.621,0,0,0-22.058-11.405,75.07,75.07,0,0,0-11.25-3.728,85.564,85.564,0,0,0-11.25-1.974,44.548,44.548,0,0,0-5.515-.219,37.206,37.206,0,0,0-13.014,1.535M24.576,428.389h0" transform="translate(-7.888 -206.375)" fill="#e7384d"/>
        <path id="Tracé_81" data-name="Tracé 81" d="M294.231,303.191a240.228,240.228,0,0,1-32.646,28.951,256.592,256.592,0,0,1-42.352,25.222,223.769,223.769,0,0,1-22.72,9.212c-3.75,1.316-7.72,2.632-11.691,3.729-3.75,1.1-7.279,1.974-11.029,2.851-7.279,1.755-14.779,3.29-22.058,4.387a220.543,220.543,0,0,1-23.823,2.851,176,176,0,0,1-24.044.219,115.722,115.722,0,0,1-22.941-3.29,101.043,101.043,0,0,1-21.176-7.457,83.537,83.537,0,0,1-9.485-5.7,91.2,91.2,0,0,1-10.147-8.116,119.605,119.605,0,0,1-9.044-9.212c-2.647-3.07-5.294-6.36-7.941-9.65-4.191-5.483-7.941-10.966-11.691-16.669-.221,2.632-.662,5.264-.882,7.9-.441,4.167-.662,8.334-.882,12.721a85.847,85.847,0,0,0,.221,13.16v.439a1.314,1.314,0,0,0,.221.878c4.412,10.308,11.029,20.617,19.852,31.144A156.927,156.927,0,0,0,57.1,412.2l.441.219.441.219.882.439.882.439c12.794,7.676,28.014,9.65,42.793,10.527q11.25.658,21.176.658h3.75c8.382,0,16.985-.658,26.029-1.535,8.382-.877,17.205-1.974,25.808-3.509,8.382-1.535,16.764-3.29,24.705-5.484a242.476,242.476,0,0,0,81.836-39.04,181.471,181.471,0,0,0,17.206-14.476,122.473,122.473,0,0,0,14.779-16.45,86.9,86.9,0,0,0,14.559-31.364v-.658l.221-.877c0-.219,0-.219-.221-.439-6.176-10.089-13.014-20.4-19.853-30.267a167.507,167.507,0,0,1-18.308,22.591" transform="translate(-9.534 -117.805)" fill="#007c7b"/>
        <path id="Tracé_82" data-name="Tracé 82" d="M305.44,276.99c-2.426,3.728-5.073,7.676-7.72,11.185a121.7,121.7,0,0,1-8.162,9.87c-2.868,3.07-5.735,6.36-8.6,9.211-5.956,5.922-11.912,11.186-18.088,16.23a236.656,236.656,0,0,1-19.411,13.6A217.48,217.48,0,0,1,222.28,348.71C215,352.219,207.5,355.289,200,358.141c-7.5,2.632-15,5.045-22.279,7.238a229.317,229.317,0,0,1-22.941,5.264c-8.162,1.535-16.323,2.632-24.044,3.29-7.059.658-13.456.877-19.632.877h-5.073a154.239,154.239,0,0,1-23.6-2.193,112.326,112.326,0,0,1-22.5-5.922,35.335,35.335,0,0,1-5.073-2.193c-1.544-.658-2.868-1.316-4.191-1.974a57.4,57.4,0,0,1-7.941-5.483,84.351,84.351,0,0,1-14.338-15.791A138.1,138.1,0,0,1,16.7,322.171c-1.544-3.07-3.088-6.141-4.412-9.212-.662,4.825-1.324,9.431-1.985,14.256a129.219,129.219,0,0,0,8.823,15.134c1.765,2.632,3.529,5.264,5.515,7.9,1.765,2.413,3.75,4.606,5.735,7.019h0a78.967,78.967,0,0,0,8.6,8.554,102.122,102.122,0,0,0,9.264,7.019h0a82.866,82.866,0,0,0,9.706,5.264,35.275,35.275,0,0,0,5.073,2.194l5.294,1.974h-.221c2.647.877,5.515,1.535,8.162,2.193,2.868.658,5.735,1.1,8.6,1.535q9.926,1.316,19.852,1.973h0a245.454,245.454,0,0,0,31.1-.658c5.073-.439,10.147-1.1,15.22-1.755s10.147-1.754,15-2.632h-.221a276.9,276.9,0,0,0,32.646-9.212c5.294-1.974,10.367-3.948,15.441-6.141q6.948-2.961,13.9-6.58h-.221A226.369,226.369,0,0,0,254.927,345.2c4.412-2.851,8.6-5.922,12.794-8.992s8.162-6.58,12.132-9.87h0A189.8,189.8,0,0,0,297.5,308.792a99.668,99.668,0,0,0,8.6-10.527c2.426-3.29,4.853-6.58,7.059-9.87a93.8,93.8,0,0,0-7.72-11.4h0" transform="translate(-8.611 -122.31)" fill="#ffe9af"/>
        <path id="Tracé_83" data-name="Tracé 83" d="M102.521,207.349C92.6,210.2,82.89,217,74.066,227.308a114.13,114.13,0,0,0-11.25,15.572,176.093,176.093,0,0,0-9.485,17.327c-5.735,11.844-10.588,24.345-14.338,34-2.206,5.922-4.632,12.282-6.618,18.424-3.309,9.212-6.176,18.643-8.823,28.074a445.2,445.2,0,0,0-11.47,50.445,40.261,40.261,0,0,1-.882,5.045h0c1.324,3.071,2.868,6.141,4.412,9.212a131.774,131.774,0,0,0,9.706,16.23c.662.877,1.323,1.974,1.985,2.851A101.825,101.825,0,0,0,41.64,440.275a57.393,57.393,0,0,0,7.941,5.483,25.193,25.193,0,0,0,4.191,1.974c.221,0,.441.22.662.22V444a471.244,471.244,0,0,1,3.529-66.018,640.533,640.533,0,0,1,11.47-64.7c.662-2.851,1.324-5.483,1.985-8.334.441-1.535.662-3.071,1.1-4.606.662-3.071,1.323-6.141,2.206-9.212,1.544-7.018,3.088-14.037,4.853-20.836,1.765-7.457,3.971-14.914,6.176-22.152a223.485,223.485,0,0,1,8.162-21.275c1.544-3.29,3.088-6.36,4.853-9.431a82.731,82.731,0,0,1,5.735-8.554c.441-.658.882-1.1,1.323-1.755a4.351,4.351,0,0,0-3.309.22" transform="translate(-7.526 -205.76)" fill="#d43346"/>
        <path id="Tracé_84" data-name="Tracé 84" d="M10.3,307.237h0c3.309,6.141,5.956,10.747,8.823,15.133l.441.877a64.789,64.789,0,0,0,5.073,7.019c1.765,2.412,3.75,4.606,5.515,6.8l.441.658q3.97,4.277,7.941,7.9a90.7,90.7,0,0,0,9.044,7.018c1.1.659,2.426,1.536,3.529,2.194,1.323.877,2.868,1.535,4.412,2.412-.221-4.167-.441-8.334-.662-12.282-.221,0-.441-.219-.662-.219A25.224,25.224,0,0,1,50,342.768a57.376,57.376,0,0,1-7.941-5.483,84.354,84.354,0,0,1-14.338-15.792c-.662-.877-1.324-1.974-1.985-2.851a131.761,131.761,0,0,1-9.706-16.23c-1.544-3.071-3.088-6.141-4.412-9.212A127.921,127.921,0,0,1,10.3,307.237" transform="translate(-8.611 -102.77)" fill="#ffe78d"/>
        <path id="Tracé_85" data-name="Tracé 85" d="M11.223,299.7h0a32.434,32.434,0,0,0-.662,6.141c-.441,3.948-.662,8.115-.882,12.721a85.852,85.852,0,0,0,.221,13.16v.438a1.312,1.312,0,0,0,.221.877c4.412,10.309,11.029,20.617,19.852,31.145A156.933,156.933,0,0,0,57.1,389.624l.441.219.441.219.882.439.882.439c.882.439,1.544.877,2.426,1.316-1.544-9.212-2.868-18.2-3.75-27.2L57.1,349.268c-1.544-.877-3.088-1.535-4.412-2.413a30.882,30.882,0,0,1-3.529-2.193,66.792,66.792,0,0,1-9.044-7.018,89.657,89.657,0,0,1-7.941-7.9l-.441-.658c-1.985-2.193-3.75-4.606-5.515-6.8-1.544-2.193-3.309-4.387-5.073-7.018l-.441-.877c-3.529-4.167-6.176-8.773-9.485-14.695h0" transform="translate(-9.534 -95.014)" fill="#006869"/>
      </g>
      <g id="Groupe_10" data-name="Groupe 10" transform="translate(79.334 39.313)">
        <path id="Tracé_86" data-name="Tracé 86" d="M75.362,229.564h0a63.516,63.516,0,0,0,3.309,12.721v-.219c.441,1.1,1.1,2.193,1.544,3.29.662.877,1.1,1.974,1.765,2.851h0c.441.439.662.877,1.1,1.316l.882.877h0c.221.219.662.439.882.658s.662.219.882.439a4.11,4.11,0,0,0,1.544.439h1.544a4.112,4.112,0,0,0,1.544-.439h0l1.323-.658h0c.441-.439.882-.658,1.1-1.1a5.494,5.494,0,0,0,.882-1.535h0c.22-.439.22-.658.441-1.1,0-.219.221-.658.221-.877V244.04a6.374,6.374,0,0,0-.441-1.974,15.038,15.038,0,0,0-.662-1.755h0c-.441-.658-.662-1.535-1.1-2.193s-.662-1.1-1.1-1.755a26.338,26.338,0,0,0-2.426-2.632c-.882-.658-1.544-1.535-2.426-2.193h0c-2.426-1.755-5.073-3.509-7.72-5.045-1.323-.658-2.426-1.535-3.75-2.193a42.917,42.917,0,0,1,.662,5.264" transform="translate(-10.29 -224.3)" fill="#9a2532"/>
        <path id="Tracé_87" data-name="Tracé 87" d="M48.368,237.892h0a25.7,25.7,0,0,0-1.544,4.387,34.868,34.868,0,0,0-1.1,4.606h0a16.5,16.5,0,0,0-.221,3.29,12.437,12.437,0,0,0,.221,2.851h0a18.476,18.476,0,0,0,.882,3.728h0a8.877,8.877,0,0,0,1.1,1.974h0c.221.438.662.658,1.1,1.1a1.677,1.677,0,0,0,.882.439,1.66,1.66,0,0,0,1.1.219h1.1c.441,0,.882-.219,1.323-.219a3.561,3.561,0,0,0,1.544-.877,5.136,5.136,0,0,0,1.544-1.535h0a23.864,23.864,0,0,0,1.324-2.412v.219a15.065,15.065,0,0,0,.662-1.755c.221-.658.221-1.316.441-1.974v.219a23.708,23.708,0,0,0,.221-3.948c0-1.316-.221-2.632-.221-3.948h0a61.486,61.486,0,0,0-1.544-6.8c-.662-2.193-1.544-4.606-2.426-6.8v.219c-.221-.658-.662-1.316-.882-1.974a37.975,37.975,0,0,0-5.515,8.992" transform="translate(-45.5 -218.811)" fill="#9a2532"/>
        <g id="Groupe_9" data-name="Groupe 9" transform="translate(43.656 33.557)">
          <path id="Tracé_88" data-name="Tracé 88" d="M80.752,266.577v-.22a3.714,3.714,0,0,0-.221-1.535h0c-.221-.877-.221-1.755-.441-2.632,0-.219-.221-.658-.221-.877a34.687,34.687,0,0,0-1.544-4.387h0c0-.219-.221-.219-.221-.439-.662-1.316-1.1-2.632-1.765-3.948l-.662-1.316a12.426,12.426,0,0,0-1.765-2.851,9.539,9.539,0,0,1-.882-1.535c-.662-.877-1.1-1.755-1.765-2.632-.221-.439-.662-.877-.882-1.316s-.662-.877-.882-1.316h0L68.178,239.6a15.049,15.049,0,0,1-.662,1.755h0v.219a34.9,34.9,0,0,0-1.1,4.606v.658a27.284,27.284,0,0,0-.662,4.167h0a38.434,38.434,0,0,0-.221,10.089h0a1.313,1.313,0,0,0,.221.877h0v.219a4.047,4.047,0,0,0,.441,1.535v.219a12.313,12.313,0,0,0,.882,2.632h0c.221.219.221.658.441.877s.221.439.441.877.662.877.882,1.316c.441.439.662.877,1.1,1.316a5.845,5.845,0,0,0,1.323,1.1h0c.221.219.662.439.882.658l.221.219c.221.219.662.219.882.438h.221c.221,0,.441.219.882.219.221,0,.662.219.882.219h1.324a.813.813,0,0,0,.662-.219.771.771,0,0,0,.441-.219c.221,0,.441-.219.662-.438s.441-.219.441-.439l.882-.877c0-.219.221-.219.221-.439h0c.22-.219.22-.439.441-.658h0c.221-.439.221-.658.441-1.1h0c0-.439.22-.658.22-1.1h0v-.219C80.752,267.893,80.752,267.235,80.752,266.577Z" transform="translate(-65.291 -239.6)" fill="#9a2532"/>
          <path id="Tracé_89" data-name="Tracé 89" d="M71.2,247.4Z" transform="translate(-58.166 -230.292)" fill="#9a2532"/>
        </g>
      </g>
    </g>
    <path id="Tracé_90" data-name="Tracé 90" d="M101.477,281.9a1.255,1.255,0,0,0-.441,1.535,11.729,11.729,0,0,1,1.1,2.413v-.219a14.5,14.5,0,0,1,1.324,4.386h0a7.209,7.209,0,0,1,0,3.071c-.221.877-.441,1.754-.662,2.412a4.775,4.775,0,0,1-1.1,1.755,10.161,10.161,0,0,1-1.544,1.535c-.662.439-1.1.658-1.765,1.1h.221c-.662.219-1.544.439-2.426.658H93.977a8.452,8.452,0,0,1-2.206-.658,19.446,19.446,0,0,1-2.206-1.316h-.221a10.439,10.439,0,0,1-2.206-2.193,20.817,20.817,0,0,1-2.206-3.729,21.461,21.461,0,0,1-1.1-3.509,1.046,1.046,0,0,0-1.985.658,18.714,18.714,0,0,0,5.735,10.089,10.992,10.992,0,0,0,8.162,2.851,10.667,10.667,0,0,0,7.059-3.29,20.807,20.807,0,0,0,2.206-3.728,16.612,16.612,0,0,0,.662-4.606,22.809,22.809,0,0,0-2.647-8.554.882.882,0,0,0-.882-.439.813.813,0,0,0-.662-.219m1.985,8.115h0m-18.088,2.194h0m18.088.877h0M102.8,295.5h0m-10.809,4.167Zm0,0h0m4.632.658h0m-6.838-1.974h0" transform="translate(77.561 -116.254)" fill="#10303c"/>
    <path id="Tracé_91" data-name="Tracé 91" d="M14.571,307.5h0a3.566,3.566,0,0,0-2.868,1.316,3.514,3.514,0,0,0-1.1,2.413,45.638,45.638,0,0,0,1.765,11.186,49.9,49.9,0,0,0,4.412,9.87A49.924,49.924,0,0,0,32,347.418a54.608,54.608,0,0,0,19.852,7.9,62.658,62.658,0,0,0,11.029,1.1,58.24,58.24,0,0,0,10.809-1.1,51.936,51.936,0,0,0,12.353-4.386,53.709,53.709,0,0,0,13.9-11.186,41.172,41.172,0,0,0,7.5,4.167,24.842,24.842,0,0,0,2.868,1.1c.882.219,1.765.439,2.868.658h1.1a4.329,4.329,0,0,0,1.544-.219,6.641,6.641,0,0,0,2.426-1.316l1.1-1.1a4.786,4.786,0,0,0,.662-1.1,3,3,0,0,0,.221-2.412,6.1,6.1,0,0,0-2.868-3.29,30.465,30.465,0,0,0-3.529-1.316,19.445,19.445,0,0,0,2.206-1.316,7.828,7.828,0,0,0,2.868-3.07,5.071,5.071,0,0,0,.221-4.387,4.772,4.772,0,0,0-1.1-1.755,3.484,3.484,0,0,0-1.765-1.1,3.288,3.288,0,0,0-1.544-.219h-.441a6.471,6.471,0,0,0-1.985.439c-.441.219-.882.219-1.1.439l.221-.219.221-.439a8.674,8.674,0,0,0,.441-3.948,3.578,3.578,0,0,0-2.647-2.632,2.815,2.815,0,0,0-1.324-.219,4.449,4.449,0,0,0-2.868.877,10.017,10.017,0,0,0-3.088,3.509,33.616,33.616,0,0,0-1.985,4.167,15.6,15.6,0,0,0-2.426-3.729,7.634,7.634,0,0,0-3.309-2.412h-.882a3.774,3.774,0,0,0-1.544.219,6.075,6.075,0,0,0-1.985,1.535,4.119,4.119,0,0,0-.882,1.974v2.193c.221.877.441,1.535.662,2.193a21.311,21.311,0,0,0,1.1,2.413,33.416,33.416,0,0,0,3.529,5.044A57.222,57.222,0,0,1,86.7,341.5a33.7,33.7,0,0,1-8.382,4.386A54.83,54.83,0,0,1,67.952,348.3a34.375,34.375,0,0,1-4.853.219c-2.426,0-5.073-.219-7.72-.439a50.549,50.549,0,0,1-12.794-3.729A64.4,64.4,0,0,1,32,337.986a40.161,40.161,0,0,1-7.279-7.677,41.562,41.562,0,0,1-4.412-8.115,30.058,30.058,0,0,1-1.985-8.554c0-.878-.221-1.755-.221-2.632a3.779,3.779,0,0,0-3.529-3.509" transform="translate(-8.249 -85.706)" fill="#10303c"/>
    <g id="Groupe_12" data-name="Groupe 12" transform="translate(2.351 71.829)">
      <path id="Tracé_92" data-name="Tracé 92" d="M271.991,239.509a132.373,132.373,0,0,0-13.456,2.413,206.508,206.508,0,0,0-26.029,7.9,240.145,240.145,0,0,0-30.661,14.476c-1.985,1.1-3.75,2.193-5.735,3.29-7.5,4.167-15,8.554-22.941,12.063a15.37,15.37,0,0,1-2.868,1.1h-.662a96.848,96.848,0,0,1-12.794,4.606h-.882l-.441.219-.441.219c-3.309.877-7.059,1.755-10.588,2.413h.441c-9.926,1.755-20.073,2.851-29.779,3.728-2.647.22-5.073.439-7.72.877a325.767,325.767,0,0,0-38.823,6.36,239.3,239.3,0,0,0-30,8.773c-4.632,1.755-9.485,3.729-14.338,5.922-3.529,1.755-8.162,3.948-12.132,7.238-.662.439-1.1.877-1.544,1.1v.877a97.016,97.016,0,0,0,12.573,26.539A121.751,121.751,0,0,0,43.908,372.86a108.031,108.031,0,0,0,26.249,16.669,78.206,78.206,0,0,0,29.117,6.8h1.985a67.2,67.2,0,0,0,13.014-1.316,60.377,60.377,0,0,0,14.558-5.045,64.739,64.739,0,0,0,23.6-19.958,70.938,70.938,0,0,0,11.691-25.881,60.839,60.839,0,0,0,1.544-14.037c0-1.974-.221-3.948-.221-5.922-.221-2.413-.221-5.045-.221-7.457V314.08c0-.658.221-1.316.221-1.974v-.439a4.579,4.579,0,0,1,1.544-2.851,3.563,3.563,0,0,1,1.544-.877,2.815,2.815,0,0,1,1.324-.219h.221a2,2,0,0,1,1.1.219,1.677,1.677,0,0,1,.882.439,6.709,6.709,0,0,1,1.544,1.1,14.217,14.217,0,0,1,1.765,1.974c.221.439.662.658.882,1.1,1.765,2.193,3.088,4.387,4.632,6.58,1.1,1.755,2.206,3.29,3.309,5.045a62.24,62.24,0,0,0,9.485,10.528,74.192,74.192,0,0,0,23.382,14.914,59.47,59.47,0,0,0,14.117,3.948,62,62,0,0,0,8.823.658A42.726,42.726,0,0,0,245.3,354a42.034,42.034,0,0,0,13.014-3.29,49.753,49.753,0,0,0,11.029-6.361,59.47,59.47,0,0,0,16.1-20.178,91.319,91.319,0,0,0,8.382-26.539,107.53,107.53,0,0,0,.662-29.17,103.349,103.349,0,0,0-7.059-27.855c0-.219-.221-.439-.441-.658h-1.765c-1.544,0-2.868-.219-4.412-.219a19.988,19.988,0,0,0-8.823-.219M80.3,299.824h.221c-.882.219-1.544.219-2.426.439.662-.22,1.324-.22,2.206-.439" transform="translate(-10.6 -239.125)" fill="#ffbb10"/>
      <path id="Tracé_93" data-name="Tracé 93" d="M83.223,270.171c-.441,0-.662.219-1.1.438l-.221.22h.221a2.81,2.81,0,0,1,1.324-.22h.221a2,2,0,0,1,1.1.22,1.674,1.674,0,0,1,.882.439,6.692,6.692,0,0,1,1.544,1.1,14.22,14.22,0,0,1,1.765,1.974,9.309,9.309,0,0,1,1.1,1.535c0,.22.221.22.221.439,1.323,1.755,2.647,3.729,3.97,5.7l.221.22c1.1,1.535,2.206,3.29,3.309,5.044a62.237,62.237,0,0,0,9.485,10.527,74.188,74.188,0,0,0,23.382,14.914,59.47,59.47,0,0,0,14.117,3.948,62.015,62.015,0,0,0,8.823.658,42.744,42.744,0,0,0,5.294-.219,42.05,42.05,0,0,0,13.014-3.29,49.748,49.748,0,0,0,11.029-6.361,59.466,59.466,0,0,0,16.1-20.178c.221-.439.441-.658.441-1.1-1.323,1.974-2.647,3.948-4.191,5.922a62.722,62.722,0,0,1-9.926,10.308,49.438,49.438,0,0,1-11.691,7.238,45.706,45.706,0,0,1-13.235,3.729,40.711,40.711,0,0,1-14.558-.658.813.813,0,0,1-.662-.219h-.221c-1.985-.439-3.75-.877-5.735-1.316a14.055,14.055,0,0,0-1.544-.439,52.007,52.007,0,0,1-8.162-3.071,88.55,88.55,0,0,1-14.338-9.211A169.108,169.108,0,0,1,102.194,286.4c-1.985-2.193-4.191-4.387-6.176-6.8-1.1-1.316-2.426-2.851-3.75-4.167a15.084,15.084,0,0,0-4.632-3.728,9.245,9.245,0,0,0-2.206-.877h.22a3.773,3.773,0,0,0-1.544-.219c-.221-.658-.662-.658-.882-.438" transform="translate(75.376 -202.235)" fill="#ffae00"/>
      <path id="Tracé_94" data-name="Tracé 94" d="M12.144,278.548c-.662.439-1.1.877-1.544,1.1v.877A97.015,97.015,0,0,0,23.173,307.06a114.712,114.712,0,0,0,20.735,23.249,108.034,108.034,0,0,0,26.249,16.669,79.195,79.195,0,0,0,29.117,6.8h1.985a67.216,67.216,0,0,0,13.014-1.316,60.4,60.4,0,0,0,14.558-5.045,66.4,66.4,0,0,0,13.014-8.554,75.648,75.648,0,0,0,10.588-11.405c1.544-2.193,2.868-4.387,4.191-6.58A71.045,71.045,0,0,1,144.935,333.6a63.326,63.326,0,0,1-12.573,8.554,65.6,65.6,0,0,1-14.117,5.7c-2.426.658-5.073,1.1-7.5,1.536s-5.073.438-7.5.658a81.669,81.669,0,0,1-14.558-1.316,62.064,62.064,0,0,1-13.676-4.387,86.5,86.5,0,0,1-12.573-6.8A102.668,102.668,0,0,1,40.82,317.808c-3.088-3.948-6.176-7.9-8.823-12.063A122.162,122.162,0,0,1,18.1,274.6a39.971,39.971,0,0,0-5.956,3.948" transform="translate(-10.6 -196.794)" fill="#ffae00"/>
      <path id="Tracé_95" data-name="Tracé 95" d="M133.634,242.177a7.77,7.77,0,0,1,.882,1.974,43.16,43.16,0,0,1,1.765,5.7c.441,1.974.882,4.167,1.324,6.36v0a122.864,122.864,0,0,1,.662,12.721c0,4.386-.22,8.554-.22,12.94a2.426,2.426,0,0,0,4.853,0,109.238,109.238,0,0,0-1.765-20.836,75.268,75.268,0,0,0-2.647-10.089,51.317,51.317,0,0,0-4.191-9.431c0-.219-.221-.219-.441-.219,0,0-.441.439-.221.877m3.97,14.037h0" transform="translate(137.683 -236.53)" fill="#fefefe"/>
      <path id="Tracé_96" data-name="Tracé 96" d="M135,264.771a3.088,3.088,0,1,0,3.088-3.071A3.311,3.311,0,0,0,135,264.771" transform="translate(139.405 -212.187)" fill="#fefefe"/>
      <path id="Tracé_97" data-name="Tracé 97" d="M135.6,266.79a.662.662,0,1,0,.662-.658c-.221-.22-.662.219-.662.658" transform="translate(140.129 -206.968)" fill="#fefefe"/>
      <path id="Tracé_98" data-name="Tracé 98" d="M107.427,268.1c-3.309,0-6.838.219-10.367.438a186.68,186.68,0,0,0-37.279,6.8c-3.309.877-6.617,1.974-10.147,3.071a96.246,96.246,0,0,0-9.926,3.728,64.858,64.858,0,0,0-9.485,5.045,50.86,50.86,0,0,0-4.191,3.07c-1.324,1.1-2.647,2.413-4.191,3.948-.221.219-.221.219-.221.439a2.372,2.372,0,0,0-.221,1.1.8.8,0,0,0,.221.658c1.324,2.851,2.868,5.922,4.853,9.65a68.9,68.9,0,0,0,9.264,13.818,106.112,106.112,0,0,0,9.926,10.089,106.3,106.3,0,0,0,11.25,8.334C65.3,343.329,73.9,346.62,82.5,347.716a40.6,40.6,0,0,0,7.279.438,46.833,46.833,0,0,0,5.735-.438A43.952,43.952,0,0,0,119.78,336.53a48.771,48.771,0,0,0,9.485-11.624c4.632-8.115,7.059-18.2,7.72-30.048a95.745,95.745,0,0,0-1.765-22.371,1.6,1.6,0,0,0-1.323-1.535,111.289,111.289,0,0,0-26.47-2.851" transform="translate(2.423 -204.55)" fill="#10303c"/>
      <path id="Tracé_99" data-name="Tracé 99" d="M107.769,269.171c2.426-1.535,5.073-3.29,7.72-4.825a146.307,146.307,0,0,1,30.882-12.721c2.868-.877,5.956-1.535,9.044-2.413,3.529-.877,6.617-1.316,9.264-1.755a74.686,74.686,0,0,1,9.706-.658,33.086,33.086,0,0,1,4.632.439c1.765.219,3.309.658,5.294,1.1a.771.771,0,0,1,.441.219,1.718,1.718,0,0,1,.882.877.8.8,0,0,1,.221.658c.662,3.071,1.324,6.36,1.985,10.308a76.146,76.146,0,0,1,1.1,16.011,96.6,96.6,0,0,1-1.544,13.16,78.264,78.264,0,0,1-3.529,12.282,53.78,53.78,0,0,1-13.235,20.4,46.5,46.5,0,0,1-5.073,4.167c-1.324.877-2.868,1.754-4.412,2.632a30.566,30.566,0,0,1-11.25,3.29,42.215,42.215,0,0,1-12.794-.439,45.7,45.7,0,0,1-13.456-5.045c-7.941-4.606-15.661-11.624-22.5-21.056a120.617,120.617,0,0,1-11.47-19.3,1.629,1.629,0,0,1,0-1.974,96.325,96.325,0,0,1,18.088-15.353" transform="translate(84.359 -229.967)" fill="#10303c"/>
      <path id="Tracé_100" data-name="Tracé 100" d="M73.255,272.2c-4.191-.22-7.941,6.58-8.6,15.353s2.206,16.23,6.176,16.449c4.191.22,7.941-6.58,8.6-15.353.882-8.773-1.985-16.23-6.176-16.45" transform="translate(54.463 -199.66)" fill="#fefefe"/>
      <path id="Tracé_101" data-name="Tracé 101" d="M70.449,288.369c-2.426-.658-5.073,1.316-5.956,4.387-.662,3.071.662,5.922,3.088,6.58s5.073-1.316,5.956-4.387-.441-5.922-3.088-6.58" transform="translate(54.181 -180.515)" fill="#fefefe"/>
      <path id="Tracé_102" data-name="Tracé 102" d="M133.755,252.8c-4.191-.219-7.941,6.58-8.6,15.353s2.206,16.23,6.176,16.449c4.191.22,7.941-6.58,8.6-15.353.882-8.773-1.985-16.23-6.176-16.449" transform="translate(127.416 -222.81)" fill="#fefefe"/>
      <path id="Tracé_103" data-name="Tracé 103" d="M130.949,268.969c-2.426-.658-5.073,1.316-5.956,4.387-.662,3.071.662,5.922,3.088,6.58s5.073-1.316,5.956-4.386-.441-5.922-3.088-6.58" transform="translate(127.134 -203.664)" fill="#fefefe"/>
    </g>
  </g>
</svg>
